<?xml version="1.0" encoding="UTF-8" standalone="no" ?>
    <!DOCTYPE svg PUBLIC "-//W3C//DTD SVG 1.1//EN" "http://www.w3.org/Graphics/SVG/1.1/DTD/svg11.dtd">
    <svg version="1.1" xmlns="http://www.w3.org/2000/svg" xmlns:xlink="http://www.w3.org/1999/xlink" width="1629" height="923" xml:space="preserve">
        <style>
          path { 
            stroke-width: 0.5;
            fill: #616161;
            fill-opacity: 0.4;
            stroke: #000000;
            stroke-opacity: 0.75; 
          }
        </style>
        <g>
            <g transform="translate(442.094112572638,237.59049421096591) scale(1)">
                <g transform="translate(0,0) scale(0.9319466652336388)">
                    <path cs="100,100" d="M658.28,700.87L603.26,707.19L600.07,751.26L538.53,780.95L571.74,797.95L617.99,803.18L608.3,852.64L632.54,846.3L681.04,831.08L681.04,817.13L644.67,752.44L658.28,700.87z" transform="translate(0,-255)" stroke-width="1.0730227783467632" fill="#797979" fill-opacity="0.47" stroke="#505050" stroke-opacity="0.35" class="amcharts-map-area amcharts-map-area-AG-04" role="menuitem" aria-label="Saint John  " countryId="AG-04"></path>
                    <path cs="100,100" d="M632.54,846.3L608.3,852.64L617.99,803.18L571.74,797.95L551,873.25L645.57,896.81L632.54,846.3z" transform="translate(0,-255)" stroke-width="1.0730227783467632" fill="#797979" fill-opacity="0.47" stroke="#505050" stroke-opacity="0.35" class="amcharts-map-area amcharts-map-area-AG-05" role="menuitem" aria-label="Saint Mary  " countryId="AG-05"></path>
                    <path cs="100,100" d="M738.05,858.08L729.54,826.01L681.04,831.08L632.54,846.3L645.57,896.81L677.91,882.85L725.1,919.25L738.05,858.08z" transform="translate(0,-255)" stroke-width="1.0730227783467632" fill="#797979" fill-opacity="0.47" stroke="#505050" stroke-opacity="0.35" class="amcharts-map-area amcharts-map-area-AG-06" role="menuitem" aria-label="Saint Paul  " countryId="AG-06"></path>
                    <path cs="100,100" d="M738.05,858.08L799.6,848.87L775.23,807.2L798.29,787.07L751.59,790.21L729.54,826.01L738.05,858.08z" transform="translate(0,-255)" stroke-width="1.0730227783467632" fill="#797979" fill-opacity="0.47" stroke="#505050" stroke-opacity="0.35" class="amcharts-map-area amcharts-map-area-AG-08" role="menuitem" aria-label="Saint Philip  " countryId="AG-08"></path>
                    <path cs="100,100" d="M751.59,790.21L758.99,747.01L717.75,730.01L702.18,764.01L681.04,817.13L681.04,831.08L729.54,826.01L751.59,790.21z" transform="translate(0,-255)" stroke-width="1.0730227783467632" fill="#797979" fill-opacity="0.47" stroke="#505050" stroke-opacity="0.35" class="amcharts-map-area amcharts-map-area-AG-07" role="menuitem" aria-label="Saint Peter  " countryId="AG-07"></path>
                    <path cs="100,100" d="M702.18,764.01L658.28,700.87L644.67,752.44L681.04,817.13L702.18,764.01z" transform="translate(0,-255)" stroke-width="1.0730227783467632" fill="#797979" fill-opacity="0.47" stroke="#505050" stroke-opacity="0.35" class="amcharts-map-area amcharts-map-area-AG-03" role="menuitem" aria-label="Saint George  " countryId="AG-03"></path>
                    <path cs="100,100" d="M0.4,990.4L5.16,986.56L2.16,981.49L0.4,990.4L0.4,990.4z" transform="translate(0,-255)" stroke-width="1.0730227783467632" fill="#797979" fill-opacity="0.47" stroke="#505050" stroke-opacity="0.35" class="amcharts-map-area amcharts-map-area-AG-11" role="menuitem" aria-label="Redonda  " countryId="AG-11"></path>
                    <path cs="100,100" d="M605.49,0L583.35,33.19L613.32,58.87L613.03,141.97L563.62,21.27L562.65,45.57L604.13,167.53L685.26,227.07L733.99,193.09L704.74,73.48L613.03,39.08L605.49,0z" transform="translate(0,-255)" stroke-width="1.0730227783467632" fill="#797979" fill-opacity="0.47" stroke="#505050" stroke-opacity="0.35" class="amcharts-map-area amcharts-map-area-AG-10" role="menuitem" aria-label="Barbuda  " countryId="AG-10"></path>
                </g>
            </g>
        </g>
    </svg>