<?xml version="1.0" encoding="UTF-8" standalone="no" ?>
    <!DOCTYPE svg PUBLIC "-//W3C//DTD SVG 1.1//EN" "http://www.w3.org/Graphics/SVG/1.1/DTD/svg11.dtd">
    <svg version="1.1" xmlns="http://www.w3.org/2000/svg" xmlns:xlink="http://www.w3.org/1999/xlink" width="1629" height="923" xml:space="preserve">
        <style>
          path { 
            stroke-width: 0.5;
            fill: #616161;
            fill-opacity: 0.4;
            stroke: #000000;
            stroke-opacity: 0.75; 
          }
        </style>
        <g>
            <g transform="translate(588.0940735591753,14.47643621960193) scale(1)">
                <g transform="translate(0,0) scale(0.5663687965999368)">
                    <path cs="100,100" d="M346.18,627.33L151.81,647.59L147.24,761.71L217.26,878.93L220.23,1007.32L278.04,1000.42L368.29,1035.53L372.88,957.89L331.22,926.92L335.51,875.09L314.57,842.02L319.74,806.76L353.01,797.38L364.22,726.26L343.24,686.98L346.18,627.33z" transform="translate(0,-26)" stroke-width="1.7656339932624594" fill="#797979" fill-opacity="0.47" stroke="#505050" stroke-opacity="0.35" class="amcharts-map-area amcharts-map-area-BJ-DO" role="menuitem" aria-label="Donga  " countryId="BJ-DO"></path>
                    <path cs="100,100" d="M326.31,257.01L218.77,268.38L176.68,245.82L148.29,294.84L97.66,302.46L103.6,327.41L78.62,333.73L92.1,364.02L57.59,350.14L52.89,378.2L36.83,373.27L0.25,534.75L151.81,647.59L346.18,627.33L391.84,600.04L369.66,529.77L388.57,498.9L390.66,408.7L414.86,381.92L326.31,257.01z" transform="translate(0,-26)" stroke-width="1.7656339932624594" fill="#797979" fill-opacity="0.47" stroke="#505050" stroke-opacity="0.35" class="amcharts-map-area amcharts-map-area-BJ-AK" role="menuitem" aria-label="Atakora  " countryId="BJ-AK"></path>
                    <path cs="100,100" d="M223.46,1629.68L319.11,1610.69L328.44,1500.85L215.54,1497.19L265.74,1613.11L223.46,1629.68z" transform="translate(0,-26)" stroke-width="1.7656339932624594" fill="#797979" fill-opacity="0.47" stroke="#505050" stroke-opacity="0.35" class="amcharts-map-area amcharts-map-area-BJ-MO" role="menuitem" aria-label="Mono  " countryId="BJ-MO"></path>
                    <path cs="100,100" d="M508.8,1251.48L451.77,1251.34L433.41,1312.43L461.03,1377.29L457.45,1425.81L477.28,1513.31L509.1,1553.74L528.21,1298.9L508.8,1251.48z" transform="translate(0,-26)" stroke-width="1.7656339932624594" fill="#797979" fill-opacity="0.47" stroke="#505050" stroke-opacity="0.35" class="amcharts-map-area amcharts-map-area-BJ-PL" role="menuitem" aria-label="Plateau  " countryId="BJ-PL"></path>
                    <path cs="100,100" d="M433.41,1312.43L293.57,1260.77L224.29,1260.94L224.4,1283.5L294.45,1405.21L344.13,1445.15L422.33,1444.82L457.45,1425.81L461.03,1377.29L433.41,1312.43z" transform="translate(0,-26)" stroke-width="1.7656339932624594" fill="#797979" fill-opacity="0.47" stroke="#505050" stroke-opacity="0.35" class="amcharts-map-area amcharts-map-area-BJ-ZO" role="menuitem" aria-label="Zou  " countryId="BJ-ZO"></path>
                    <path cs="100,100" d="M457.45,1425.81L422.33,1444.82L443.82,1582.11L448.07,1594.64L505.21,1589.3L509.1,1553.74L477.28,1513.31L457.45,1425.81z" transform="translate(0,-26)" stroke-width="1.7656339932624594" fill="#797979" fill-opacity="0.47" stroke="#505050" stroke-opacity="0.35" class="amcharts-map-area amcharts-map-area-BJ-OU" role="menuitem" aria-label="Ouémé  " countryId="BJ-OU"></path>
                    <path cs="100,100" d="M344.13,1445.15L294.45,1405.21L224.4,1283.5L225.03,1424.87L200.66,1426.14L215.54,1497.19L328.44,1500.85L344.13,1445.15z" transform="translate(0,-26)" stroke-width="1.7656339932624594" fill="#797979" fill-opacity="0.47" stroke="#505050" stroke-opacity="0.35" class="amcharts-map-area amcharts-map-area-BJ-KO" role="menuitem" aria-label="Kouffo  " countryId="BJ-KO"></path>
                    <path cs="100,100" d="M448.07,1594.64L443.82,1582.11L415.82,1597.65L448.07,1594.64z" transform="translate(0,-26)" stroke-width="1.7656339932624594" fill="#797979" fill-opacity="0.47" stroke="#505050" stroke-opacity="0.35" class="amcharts-map-area amcharts-map-area-BJ-LI" role="menuitem" aria-label="Littoral  " countryId="BJ-LI"></path>
                    <path cs="100,100" d="M443.82,1582.11L422.33,1444.82L344.13,1445.15L328.44,1500.85L319.11,1610.69L415.82,1597.65L443.82,1582.11z" transform="translate(0,-26)" stroke-width="1.7656339932624594" fill="#797979" fill-opacity="0.47" stroke="#505050" stroke-opacity="0.35" class="amcharts-map-area amcharts-map-area-BJ-AQ" role="menuitem" aria-label="Atlantique  " countryId="BJ-AQ"></path>
                    <path cs="100,100" d="M510.18,959.32L372.88,957.89L368.29,1035.53L278.04,1000.42L220.23,1007.32L224.29,1260.94L293.57,1260.77L433.41,1312.43L451.77,1251.34L508.8,1251.48L510.18,959.32z" transform="translate(0,-26)" stroke-width="1.7656339932624594" fill="#797979" fill-opacity="0.47" stroke="#505050" stroke-opacity="0.35" class="amcharts-map-area amcharts-map-area-BJ-CO" role="menuitem" aria-label="Collines  " countryId="BJ-CO"></path>
                    <path cs="100,100" d="M541.72,0L418.46,43.35L441,111.71L421.28,119.99L397,195.02L326.31,257.01L414.86,381.92L390.66,408.7L388.57,498.9L799.75,469.08L771.89,422.24L769.83,341.6L703.91,260.22L737.17,186.93L541.72,0z" transform="translate(0,-26)" stroke-width="1.7656339932624594" fill="#797979" fill-opacity="0.47" stroke="#505050" stroke-opacity="0.35" class="amcharts-map-area amcharts-map-area-BJ-AL" role="menuitem" aria-label="Alibori  " countryId="BJ-AL"></path>
                    <path cs="100,100" d="M510.18,959.32L522.19,884.13L601.93,874.1L616.62,778.75L668.35,727.43L666.88,687.96L715.52,676.12L735.37,649.16L755.64,596.97L730.93,560.23L751.64,520.58L786.88,523.07L799.75,469.08L388.57,498.9L369.66,529.77L391.84,600.04L346.18,627.33L343.24,686.98L364.22,726.26L353.01,797.38L319.74,806.76L314.57,842.02L335.51,875.09L331.22,926.92L372.88,957.89L510.18,959.32z" transform="translate(0,-26)" stroke-width="1.7656339932624594" fill="#797979" fill-opacity="0.47" stroke="#505050" stroke-opacity="0.35" class="amcharts-map-area amcharts-map-area-BJ-BO" role="menuitem" aria-label="Borgou  " countryId="BJ-BO"></path>
                </g>
            </g>
        </g>
    </svg>