<?xml version="1.0" encoding="UTF-8" standalone="no" ?>
    <!DOCTYPE svg PUBLIC "-//W3C//DTD SVG 1.1//EN" "http://www.w3.org/Graphics/SVG/1.1/DTD/svg11.dtd">
    <svg version="1.1" xmlns="http://www.w3.org/2000/svg" xmlns:xlink="http://www.w3.org/1999/xlink" width="1629" height="923" xml:space="preserve">
        <style>
          path { 
            stroke-width: 0.5;
            fill: #616161;
            fill-opacity: 0.4;
            stroke: #000000;
            stroke-opacity: 0.75; 
          }
        </style>
        <g>
            <g transform="translate(468.4940957475629,369.75607585446187) scale(1)">
                <g transform="translate(0,0) scale(0.8661624258453376)">
                    <path cs="100,100" d="M254.77,489.46L183.87,465.81L126.94,509.55L98.07,585.38L148.32,705.87L233.12,665.71L349.16,597.58L309.6,525.31L254.77,489.46z" transform="translate(0,-427)" stroke-width="1.1545178711995532" fill="#797979" fill-opacity="0.47" stroke="#505050" stroke-opacity="0.35" class="amcharts-map-area amcharts-map-area-BB-11" role="menuitem" aria-label="Saint Thomas  " countryId="BB-11"></path>
                    <path cs="100,100" d="M626.81,937.4L788.55,794.24L799.62,669.08L758.18,616.47L655.44,574.12L510.34,722.19L494.81,781.49L533.09,797.07L571.01,896.52L626.81,937.4z" transform="translate(0,-427)" stroke-width="1.1545178711995532" fill="#797979" fill-opacity="0.47" stroke="#505050" stroke-opacity="0.35" class="amcharts-map-area amcharts-map-area-BB-10" role="menuitem" aria-label="Saint Philip  " countryId="BB-10"></path>
                    <path cs="100,100" d="M297.27,199.43L272.68,145.94L0.38,256.88L7.86,384.12L166.14,372.32L176.28,224.56L297.27,199.43z" transform="translate(0,-427)" stroke-width="1.1545178711995532" fill="#797979" fill-opacity="0.47" stroke="#505050" stroke-opacity="0.35" class="amcharts-map-area amcharts-map-area-BB-09" role="menuitem" aria-label="Saint Peter  " countryId="BB-09"></path>
                    <path cs="100,100" d="M291.96,858.61L233.12,665.71L148.32,705.87L76.41,756.16L43.92,737.23L111.24,910.22L186.64,945.97L297.72,887.51L291.96,858.61z" transform="translate(0,-427)" stroke-width="1.1545178711995532" fill="#797979" fill-opacity="0.47" stroke="#505050" stroke-opacity="0.35" class="amcharts-map-area amcharts-map-area-BB-08" role="menuitem" aria-label="Saint Michael  " countryId="BB-08"></path>
                    <path cs="100,100" d="M142.03,0L78.14,23.96L2.89,123.33L0.38,256.88L272.68,145.94L207.07,35.49L142.03,0z" transform="translate(0,-427)" stroke-width="1.1545178711995532" fill="#797979" fill-opacity="0.47" stroke="#505050" stroke-opacity="0.35" class="amcharts-map-area amcharts-map-area-BB-07" role="menuitem" aria-label="Saint Lucy  " countryId="BB-07"></path>
                    <path cs="100,100" d="M477.3,461.58L379.16,366.1L302.29,386.4L254.77,489.46L309.6,525.31L349.16,597.58L398.96,588.76L404.81,520.06L477.3,461.58z" transform="translate(0,-427)" stroke-width="1.1545178711995532" fill="#797979" fill-opacity="0.47" stroke="#505050" stroke-opacity="0.35" class="amcharts-map-area amcharts-map-area-BB-06" role="menuitem" aria-label="Saint Andrew  " countryId="BB-06"></path>
                    <path cs="100,100" d="M655.44,574.12L477.3,461.58L404.81,520.06L398.96,588.76L510.34,722.19L655.44,574.12z" transform="translate(0,-427)" stroke-width="1.1545178711995532" fill="#797979" fill-opacity="0.47" stroke="#505050" stroke-opacity="0.35" class="amcharts-map-area amcharts-map-area-BB-05" role="menuitem" aria-label="Saint John  " countryId="BB-05"></path>
                    <path cs="100,100" d="M166.14,372.32L7.86,384.12L43.92,737.23L76.41,756.16L148.32,705.87L98.07,585.38L126.94,509.55L183.87,465.81L166.14,372.32z" transform="translate(0,-427)" stroke-width="1.1545178711995532" fill="#797979" fill-opacity="0.47" stroke="#505050" stroke-opacity="0.35" class="amcharts-map-area amcharts-map-area-BB-04" role="menuitem" aria-label="Saint James  " countryId="BB-04"></path>
                    <path cs="100,100" d="M510.34,722.19L398.96,588.76L349.16,597.58L233.12,665.71L291.96,858.61L494.81,781.49L510.34,722.19z" transform="translate(0,-427)" stroke-width="1.1545178711995532" fill="#797979" fill-opacity="0.47" stroke="#505050" stroke-opacity="0.35" class="amcharts-map-area amcharts-map-area-BB-03" role="menuitem" aria-label="Saint George  " countryId="BB-03"></path>
                    <path cs="100,100" d="M379.16,366.1L297.27,199.43L176.28,224.56L166.14,372.32L183.87,465.81L254.77,489.46L302.29,386.4L379.16,366.1z" transform="translate(0,-427)" stroke-width="1.1545178711995532" fill="#797979" fill-opacity="0.47" stroke="#505050" stroke-opacity="0.35" class="amcharts-map-area amcharts-map-area-BB-02" role="menuitem" aria-label="Saint Andrew  " countryId="BB-02"></path>
                    <path cs="100,100" d="M413.41,1065.62L509.82,1043.32L626.81,937.4L571.01,896.52L533.09,797.07L494.81,781.49L291.96,858.61L297.72,887.51L186.64,945.97L313.26,968.13L378.59,1005.65L413.41,1065.62z" transform="translate(0,-427)" stroke-width="1.1545178711995532" fill="#797979" fill-opacity="0.47" stroke="#505050" stroke-opacity="0.35" class="amcharts-map-area amcharts-map-area-BB-01" role="menuitem" aria-label="Christ Church  " countryId="BB-01"></path>
                </g>
            </g>
        </g>
    </svg>