<?xml version="1.0" encoding="UTF-8" standalone="no" ?>
    <!DOCTYPE svg PUBLIC "-//W3C//DTD SVG 1.1//EN" "http://www.w3.org/Graphics/SVG/1.1/DTD/svg11.dtd">
    <svg version="1.1" xmlns="http://www.w3.org/2000/svg" xmlns:xlink="http://www.w3.org/1999/xlink" width="1629" height="923" xml:space="preserve">
        <style>
          path { 
            stroke-width: 0.5;
            fill: #616161;
            fill-opacity: 0.4;
            stroke: #000000;
            stroke-opacity: 0.75; 
          }
        </style>
        <g>
            <g transform="translate(233.3141146231212,-64.78317266964395) scale(1)">
                <g transform="translate(0,0) scale(1.4551474345940882)">
                    <path cs="100,100" d="M348.42,589.24L255.23,544.91L273.17,616.95L390.71,628.72L348.42,589.24z" transform="translate(-1,45)" stroke-width="0.6872155880747224" fill="#797979" fill-opacity="0.47" stroke="#505050" stroke-opacity="0.35" class="amcharts-map-area amcharts-map-area-KM-MO" role="menuitem" aria-label="Moheli  " countryId="KM-MO"></path>
                    <path cs="100,100" d="M788.66,634.3L799.37,542.37L761.6,437.41L727.94,450.59L704.64,509.66L602.82,497.33L711.78,554.14L788.66,634.3z" transform="translate(-1,45)" stroke-width="0.6872155880747224" fill="#797979" fill-opacity="0.47" stroke="#505050" stroke-opacity="0.35" class="amcharts-map-area amcharts-map-area-KM-AN" role="menuitem" aria-label="Anjouan  " countryId="KM-AN" cursor="pointer"></path>
                    <path cs="100,100" d="M84.65,0L36.42,11.38L0.63,241.85L33.05,290.37L134.57,354.7L171.5,323.85L152.17,286.31L97.69,151.55L108.5,24.17L84.65,0z" transform="translate(-1,45)" stroke-width="0.6872155880747224" fill="#797979" fill-opacity="0.47" stroke="#505050" stroke-opacity="0.35" class="amcharts-map-area amcharts-map-area-KM-GC" role="menuitem" aria-label="Grande Comore  " countryId="KM-GC"></path>
                </g>
            </g>
        </g>
    </svg>