<?xml version="1.0" encoding="UTF-8" standalone="no" ?>
    <!DOCTYPE svg PUBLIC "-//W3C//DTD SVG 1.1//EN" "http://www.w3.org/Graphics/SVG/1.1/DTD/svg11.dtd">
    <svg version="1.1" xmlns="http://www.w3.org/2000/svg" xmlns:xlink="http://www.w3.org/1999/xlink" width="1629" height="923" xml:space="preserve">
        <style>
          path { 
            stroke-width: 0.5;
            fill: #616161;
            fill-opacity: 0.4;
            stroke: #000000;
            stroke-opacity: 0.75; 
          }
        </style>
        <g>
            <g transform="translate(0.020456744019969053,322.1964770635169) scale(1)">
                <g transform="translate(0,0) scale(2.0461739561763097)">
                    <path cs="100,100" d="M406.41,87.94L390.82,76.56L388.95,52.49L354.49,48.35L349.15,64.27L72.97,63.23L74.26,90.82L88.29,109.51L83.44,125.27L118.21,131.3L184.11,99.26L282.52,96.41L339.11,79.19L393.24,98.68L406.41,87.94z" transform="translate(-2,-35)" stroke-width="0.4887170012996854" fill="#797979" fill-opacity="0.47" stroke="#505050" stroke-opacity="0.35" class="amcharts-map-area amcharts-map-area-GM-N" role="menuitem" aria-label="North Bank  " countryId="GM-N"></path>
                    <path cs="100,100" d="M22.07,205.22L43.29,178.23L265.73,180.26L268.1,155.33L181.55,145.71L172.5,152.68L161.34,153.3L153.3,134.56L105.13,147.74L121.58,164.44L110.56,166.3L107.93,151.61L74.97,142.47L63.94,118.18L35.12,131.05L19.62,112.77L1.94,130.85L22.07,205.22z" transform="translate(-2,-35)" stroke-width="0.4887170012996854" fill="#797979" fill-opacity="0.47" stroke="#505050" stroke-opacity="0.35" class="amcharts-map-area amcharts-map-area-GM-W" role="menuitem" aria-label="West Coast  " countryId="GM-W"></path>
                    <path cs="100,100" d="M438.33,70.6L406.94,87.94L396.18,103.01L342.47,84.27L321.98,99.2L178.92,106.31L161.47,132.16L168.84,152.45L181.55,145.71L268.1,155.33L272.66,130.51L412.99,119.48L438.33,70.6z" transform="translate(-2,-35)" stroke-width="0.4887170012996854" fill="#797979" fill-opacity="0.47" stroke="#505050" stroke-opacity="0.35" class="amcharts-map-area amcharts-map-area-GM-L" role="menuitem" aria-label="Lower River  " countryId="GM-L"></path>
                    <path cs="100,100" d="M63.94,118.18L65.21,97.41L41.88,87.94L19.62,112.77L35.12,131.05L63.94,118.18z" transform="translate(-2,-35)" stroke-width="0.4887170012996854" fill="#797979" fill-opacity="0.47" stroke="#505050" stroke-opacity="0.35" class="amcharts-map-area amcharts-map-area-GM-B" role="menuitem" aria-label="Banjul  " countryId="GM-B"></path>
                    <path cs="100,100" d="M604.92,135.05L653.44,158.82L697.69,160.49L777.41,137.37L798.06,120.05L792.73,93.26L759.69,66.32L659.14,99.87L628.74,82.36L604.92,135.05z" transform="translate(-2,-35)" stroke-width="0.4887170012996854" fill="#797979" fill-opacity="0.47" stroke="#505050" stroke-opacity="0.35" class="amcharts-map-area amcharts-map-area-GM-U" role="menuitem" aria-label="Upper River  " countryId="GM-U"></path>
                    <path cs="100,100" d="M466.14,0L415.59,21.03L382.01,12.93L354.49,48.35L388.95,52.49L390.82,76.56L406.41,87.94L406.94,87.94L438.33,70.6L449.9,62.4L557.4,125.28L604.92,135.05L628.74,82.36L607.44,48.55L585.18,42.37L554.93,55.46L518.3,10.46L466.14,0z" transform="translate(-2,-35)" stroke-width="0.4887170012996854" fill="#797979" fill-opacity="0.47" stroke="#505050" stroke-opacity="0.35" class="amcharts-map-area amcharts-map-area-GM-M" role="menuitem" aria-label="Central River  " countryId="GM-M"></path>
                </g>
            </g>
        </g>
    </svg>