<?xml version="1.0" encoding="UTF-8" standalone="no" ?>
    <!DOCTYPE svg PUBLIC "-//W3C//DTD SVG 1.1//EN" "http://www.w3.org/Graphics/SVG/1.1/DTD/svg11.dtd">
    <svg version="1.1" xmlns="http://www.w3.org/2000/svg" xmlns:xlink="http://www.w3.org/1999/xlink" width="1629" height="923" xml:space="preserve">
        <style>
          path { 
            stroke-width: 0.5;
            fill: #616161;
            fill-opacity: 0.4;
            stroke: #000000;
            stroke-opacity: 0.75; 
          }
        </style>
        <g>
            <g transform="translate(508.0320885899697,3.9720176620142746) scale(1)">
                <g transform="translate(0,0) scale(0.766802390497236)">
                    <path cs="100,100" d="M468.26,259.41L476.06,199.13L425.79,146.69L374.48,186.67L365.01,258.33L417.19,302.61L468.26,259.41z" transform="translate(0,-5)" stroke-width="1.3041169568492688" fill="#797979" fill-opacity="0.47" stroke="#505050" stroke-opacity="0.35" class="amcharts-map-area amcharts-map-area-GY-CU" role="menuitem" aria-label="Cuyuni-Mazaruni  " countryId="GY-CU"></path>
                    <path cs="100,100" d="M630.75,373.97L566.76,302.79L532.39,406.38L604.32,439.87L630.75,373.97z" transform="translate(0,-5)" stroke-width="1.3041169568492688" fill="#797979" fill-opacity="0.47" stroke="#505050" stroke-opacity="0.35" class="amcharts-map-area amcharts-map-area-GY-ES" role="menuitem" aria-label="Essequibo Islands-West Demerara  " countryId="GY-ES"></path>
                    <path cs="100,100" d="M462.04,298.67L473.37,275.64L462.28,286.09L462.04,298.67zM510.76,397.88L524.51,286L482.03,279.04L458.25,343.37L508.09,402.13L510.76,397.88zM481.03,271.35L498.5,261.44L484.62,260.32L481.03,271.35zM453.32,336.05L455.55,287.16L468.26,259.41L417.19,302.61L419.62,331.34L452.41,339.58L453.32,336.05zM475.3,268.59L482.22,251.83L471.1,271.82L475.3,268.59z" transform="translate(0,-5)" stroke-width="1.3041169568492688" fill="#797979" fill-opacity="0.47" stroke="#505050" stroke-opacity="0.35" class="amcharts-map-area amcharts-map-area-GY-DE" role="menuitem" aria-label="Demerara-Mahaica  " countryId="GY-DE"></path>
                    <path cs="100,100" d="M566.76,302.79L524.51,286L510.76,397.88L508.09,402.13L532.39,406.38L566.76,302.79z" transform="translate(0,-5)" stroke-width="1.3041169568492688" fill="#797979" fill-opacity="0.47" stroke="#505050" stroke-opacity="0.35" class="amcharts-map-area amcharts-map-area-GY-EB" role="menuitem" aria-label="East Berbice-Corentyne  " countryId="GY-EB"></path>
                    <path cs="100,100" d="M313.24,257.77L254.86,224.22L170.85,230.73L166.12,265.82L43.74,302.3L45.08,388.91L0.33,428.34L107.16,549.82L213.06,557.46L351.11,467.69L377.54,499.48L415.37,515.05L451.48,487.91L454.85,351.29L452.41,339.58L419.62,331.34L417.19,302.61L365.01,258.33L313.24,257.77z" transform="translate(0,-5)" stroke-width="1.3041169568492688" fill="#797979" fill-opacity="0.47" stroke="#505050" stroke-opacity="0.35" class="amcharts-map-area amcharts-map-area-GY-PM" role="menuitem" aria-label="Pomeroon-Supenaam  " countryId="GY-PM"></path>
                    <path cs="100,100" d="M224.07,0L255.25,51.44L108.67,169.6L127.04,226.19L170.85,230.73L254.86,224.22L313.24,257.77L365.01,258.33L374.48,186.67L425.79,146.69L224.07,0z" transform="translate(0,-5)" stroke-width="1.3041169568492688" fill="#797979" fill-opacity="0.47" stroke="#505050" stroke-opacity="0.35" class="amcharts-map-area amcharts-map-area-GY-BA" role="menuitem" aria-label="Barima-Waini  " countryId="GY-BA"></path>
                    <path cs="100,100" d="M414.19,1203.7L468.36,1190.92L471.15,1160.58L564.32,927.52L481.21,705L409.54,745.87L349.6,721.5L313.76,713.33L314.28,664.27L278.37,685.39L304.31,755.83L249.79,814.15L227.47,958.73L269.5,1028.77L266.72,1094.14L414.19,1203.7z" transform="translate(0,-5)" stroke-width="1.3041169568492688" fill="#797979" fill-opacity="0.47" stroke="#505050" stroke-opacity="0.35" class="amcharts-map-area amcharts-map-area-GY-UT" role="menuitem" aria-label="Upper Takutu-Upper Essequibo  " countryId="GY-UT"></path>
                    <path cs="100,100" d="M508.09,402.13L458.25,343.37L454.85,351.29L451.48,487.91L415.37,515.05L423.58,621.05L506.87,642.52L542.02,639.3L601.81,526.11L604.32,439.87L532.39,406.38L508.09,402.13z" transform="translate(0,-5)" stroke-width="1.3041169568492688" fill="#797979" fill-opacity="0.47" stroke="#505050" stroke-opacity="0.35" class="amcharts-map-area amcharts-map-area-GY-UD" role="menuitem" aria-label="Upper Demerara-Berbice  " countryId="GY-UD"></path>
                    <path cs="100,100" d="M377.54,499.48L351.11,467.69L213.06,557.46L230.5,573.45L201.47,659.89L278.37,685.39L314.28,664.27L313.76,713.33L349.6,721.5L409.54,745.87L481.21,705L506.87,642.52L423.58,621.05L415.37,515.05L377.54,499.48z" transform="translate(0,-5)" stroke-width="1.3041169568492688" fill="#797979" fill-opacity="0.47" stroke="#505050" stroke-opacity="0.35" class="amcharts-map-area amcharts-map-area-GY-PT" role="menuitem" aria-label="Potaro-Siparuni  " countryId="GY-PT"></path>
                    <path cs="100,100" d="M675.11,503.63L688.18,405.52L630.75,373.97L604.32,439.87L601.81,526.11L542.02,639.3L506.87,642.52L481.21,705L564.32,927.52L471.15,1160.58L624.13,1119.06L663.44,1075.42L799.67,1081.2L763.34,1066.88L682.5,933.95L665.24,844.58L608.89,845.36L545.93,742.21L566.01,610.62L669.78,578.57L675.11,503.63z" transform="translate(0,-5)" stroke-width="1.3041169568492688" fill="#797979" fill-opacity="0.47" stroke="#505050" stroke-opacity="0.35" class="amcharts-map-area amcharts-map-area-GY-MA" role="menuitem" aria-label="Mahaica-Berbice  " countryId="GY-MA"></path>
                </g>
            </g>
        </g>
    </svg>