<?xml version="1.0" encoding="UTF-8" standalone="no" ?>
    <!DOCTYPE svg PUBLIC "-//W3C//DTD SVG 1.1//EN" "http://www.w3.org/Graphics/SVG/1.1/DTD/svg11.dtd">
    <svg version="1.1" xmlns="http://www.w3.org/2000/svg" xmlns:xlink="http://www.w3.org/1999/xlink" width="1629" height="923" xml:space="preserve">
        <style>
          path { 
            stroke-width: 0.5;
            fill: #616161;
            fill-opacity: 0.4;
            stroke: #000000;
            stroke-opacity: 0.75; 
          }
        </style>
        <g>
            <g transform="translate(-0.00003989718348795801,387.5938192674739) scale(1)">
                <g transform="translate(0,0) scale(2.0427357858630737)">
                    <path cs="100,100" d="M773.63,200.63L674.36,190.73L638.33,170.99L642.54,207.33L627.62,226.18L647.46,249.97L734.89,252.57L798.73,231.63L773.63,200.63z" transform="translate(-1,-120)" stroke-width="0.489539570864027" fill="#797979" fill-opacity="0.47" stroke="#505050" stroke-opacity="0.35" class="amcharts-map-area amcharts-map-area-JM-03" role="menuitem" aria-label="Saint Thomas  " countryId="JM-03"></path>
                    <path cs="100,100" d="M593.24,146.05L548.97,142.34L542.84,188.68L557.31,202.19L570.99,210.14L591.78,200.53L602.17,216.94L563.76,223.54L627.62,226.18L642.54,207.33L638.33,170.99L601.83,167.58L593.24,146.05z" transform="translate(-1,-120)" stroke-width="0.489539570864027" fill="#797979" fill-opacity="0.47" stroke="#505050" stroke-opacity="0.35" class="amcharts-map-area amcharts-map-area-JM-02" role="menuitem" aria-label="Saint Andrew  " countryId="JM-02"></path>
                    <path cs="100,100" d="M611.47,96.85L578.31,90.47L540.91,42.11L476.94,40.54L503.9,106.38L519.87,106.05L548.97,142.34L593.24,146.05L611.47,96.85z" transform="translate(-1,-120)" stroke-width="0.489539570864027" fill="#797979" fill-opacity="0.47" stroke="#505050" stroke-opacity="0.35" class="amcharts-map-area amcharts-map-area-JM-05" role="menuitem" aria-label="Saint Mary  " countryId="JM-05"></path>
                    <path cs="100,100" d="M548.97,142.34L519.87,106.05L503.9,106.38L425.69,127.83L453.51,243.27L479.18,237.76L488.62,258.03L523.7,263.02L557.31,202.19L542.84,188.68L548.97,142.34z" transform="translate(-1,-120)" stroke-width="0.489539570864027" fill="#797979" fill-opacity="0.47" stroke="#505050" stroke-opacity="0.35" class="amcharts-map-area amcharts-map-area-JM-14" role="menuitem" aria-label="Saint Catherine  " countryId="JM-14"></path>
                    <path cs="100,100" d="M476.94,40.54L332.91,16.43L323.48,123.99L425.69,127.83L503.9,106.38L476.94,40.54z" transform="translate(-1,-120)" stroke-width="0.489539570864027" fill="#797979" fill-opacity="0.47" stroke="#505050" stroke-opacity="0.35" class="amcharts-map-area amcharts-map-area-JM-06" role="menuitem" aria-label="Saint Ann  " countryId="JM-06"></path>
                    <path cs="100,100" d="M773.63,200.63L739.22,139.38L611.47,96.85L593.24,146.05L601.83,167.58L638.33,170.99L674.36,190.73L773.63,200.63z" transform="translate(-1,-120)" stroke-width="0.489539570864027" fill="#797979" fill-opacity="0.47" stroke="#505050" stroke-opacity="0.35" class="amcharts-map-area amcharts-map-area-JM-04" role="menuitem" aria-label="Portland  " countryId="JM-04"></path>
                    <path cs="100,100" d="M602.17,216.94L591.78,200.53L570.99,210.14L602.17,216.94z" transform="translate(-1,-120)" stroke-width="0.489539570864027" fill="#797979" fill-opacity="0.47" stroke="#505050" stroke-opacity="0.35" class="amcharts-map-area amcharts-map-area-JM-01" role="menuitem" aria-label="Kingston  " countryId="JM-01"></path>
                    <path cs="100,100" d="M166.57,85.58L101.37,69.26L11.71,84.88L1.27,97.31L13.65,114.1L119.57,128.2L150.81,179.83L175.88,124.2L166.57,85.58z" transform="translate(-1,-120)" stroke-width="0.489539570864027" fill="#797979" fill-opacity="0.47" stroke="#505050" stroke-opacity="0.35" class="amcharts-map-area amcharts-map-area-JM-10" role="menuitem" aria-label="Westmoreland  " countryId="JM-10"></path>
                    <path cs="100,100" d="M332.91,16.43L234.35,4.65L217.63,109.27L269.09,114.49L323.48,123.99L332.91,16.43z" transform="translate(-1,-120)" stroke-width="0.489539570864027" fill="#797979" fill-opacity="0.47" stroke="#505050" stroke-opacity="0.35" class="amcharts-map-area amcharts-map-area-JM-07" role="menuitem" aria-label="Trelawny  " countryId="JM-07"></path>
                    <path cs="100,100" d="M173.53,0L137.85,27.72L166.57,85.58L175.88,124.2L217.63,109.27L234.35,4.65L173.53,0z" transform="translate(-1,-120)" stroke-width="0.489539570864027" fill="#797979" fill-opacity="0.47" stroke="#505050" stroke-opacity="0.35" class="amcharts-map-area amcharts-map-area-JM-08" role="menuitem" aria-label="Saint James  " countryId="JM-08"></path>
                    <path cs="100,100" d="M269.09,114.49L217.63,109.27L175.88,124.2L150.81,179.83L194.23,192.69L196.38,218.54L236.12,254.88L296.71,254L269.09,114.49z" transform="translate(-1,-120)" stroke-width="0.489539570864027" fill="#797979" fill-opacity="0.47" stroke="#505050" stroke-opacity="0.35" class="amcharts-map-area amcharts-map-area-JM-11" role="menuitem" aria-label="Saint Elizabeth  " countryId="JM-11"></path>
                    <path cs="100,100" d="M323.48,123.99L269.09,114.49L296.71,254L358.7,255.43L371.68,238.49L323.48,123.99z" transform="translate(-1,-120)" stroke-width="0.489539570864027" fill="#797979" fill-opacity="0.47" stroke="#505050" stroke-opacity="0.35" class="amcharts-map-area amcharts-map-area-JM-12" role="menuitem" aria-label="Manchester  " countryId="JM-12"></path>
                    <path cs="100,100" d="M137.85,27.72L53.8,28.66L15.58,59.72L11.71,84.88L101.37,69.26L166.57,85.58L137.85,27.72z" transform="translate(-1,-120)" stroke-width="0.489539570864027" fill="#797979" fill-opacity="0.47" stroke="#505050" stroke-opacity="0.35" class="amcharts-map-area amcharts-map-area-JM-09" role="menuitem" aria-label="Hanover  " countryId="JM-09"></path>
                    <path cs="100,100" d="M444.93,312.94L451.27,289.17L423.65,286.55L438.8,284.2L453.51,243.27L425.69,127.83L323.48,123.99L371.68,238.49L358.7,255.43L444.93,312.94z" transform="translate(-1,-120)" stroke-width="0.489539570864027" fill="#797979" fill-opacity="0.47" stroke="#505050" stroke-opacity="0.35" class="amcharts-map-area amcharts-map-area-JM-13" role="menuitem" aria-label="Clarendon  " countryId="JM-13"></path>
                </g>
            </g>
        </g>
    </svg>