<?xml version="1.0" encoding="UTF-8" standalone="no" ?>
    <!DOCTYPE svg PUBLIC "-//W3C//DTD SVG 1.1//EN" "http://www.w3.org/Graphics/SVG/1.1/DTD/svg11.dtd">
    <svg version="1.1" xmlns="http://www.w3.org/2000/svg" xmlns:xlink="http://www.w3.org/1999/xlink" width="1629" height="923" xml:space="preserve">
        <style>
          path { 
            stroke-width: 0.5;
            fill: #616161;
            fill-opacity: 0.4;
            stroke: #000000;
            stroke-opacity: 0.75; 
          }
        </style>
        <g>
            <g transform="translate(325.83566412793726,758.7723335008419) scale(1)">
                <g transform="translate(0,0) scale(1.223342936217456)">
                    <path cs="100,100" d="M656.97,381.32L621.04,352.99L614.06,371.7L621.19,388.57L656.97,381.32z" transform="translate(-1,-620)" stroke-width="0.8174322754435266" fill="#797979" fill-opacity="0.47" stroke="#505050" stroke-opacity="0.35" class="amcharts-map-area amcharts-map-area-KW-HW" role="menuitem" aria-label="Hawalli  " countryId="KW-HW"></path>
                    <path cs="100,100" d="M696.87,55.69L668.33,56.74L700.53,83.92L657.49,98.78L665.15,125.75L636.89,144.46L713.8,241.54L768.68,166.75L696.87,55.69zM480.54,0L347.71,2.96L257.94,46.08L135.49,316.6L0.53,484.71L384.74,542.17L520.8,503.93L550.95,402.61L560.71,381.53L558.03,375.15L499.13,340.91L603.03,252.96L693.58,259.76L615.68,131.27L595.66,50.59L480.54,0z" transform="translate(-1,-620)" stroke-width="0.8174322754435266" fill="#797979" fill-opacity="0.47" stroke="#505050" stroke-opacity="0.35" class="amcharts-map-area amcharts-map-area-KW-JA" role="menuitem" aria-label="Al Jahrah  " countryId="KW-JA"></path>
                    <path cs="100,100" d="M662.14,428.01L656.97,381.32L621.19,388.57L632.05,430.32L662.14,428.01z" transform="translate(-1,-620)" stroke-width="0.8174322754435266" fill="#797979" fill-opacity="0.47" stroke="#505050" stroke-opacity="0.35" class="amcharts-map-area amcharts-map-area-KW-MU" role="menuitem" aria-label="Mubarak Al-Kabeer  " countryId="KW-MU"></path>
                    <path cs="100,100" d="M621.04,352.99L558.03,375.15L560.71,381.53L614.06,371.7L621.04,352.99zM777.75,321.7L731.05,311.13L784.58,344.14L777.75,321.7z" transform="translate(-1,-620)" stroke-width="0.8174322754435266" fill="#797979" fill-opacity="0.47" stroke="#505050" stroke-opacity="0.35" class="amcharts-map-area amcharts-map-area-KW-KU" role="menuitem" aria-label="Al Asimah  " countryId="KW-KU"></path>
                    <path cs="100,100" d="M478,754.49L799.47,751.15L662.14,428.01L632.05,430.32L565.9,441.73L550.95,402.61L520.8,503.93L384.74,542.17L478,754.49z" transform="translate(-1,-620)" stroke-width="0.8174322754435266" fill="#797979" fill-opacity="0.47" stroke="#505050" stroke-opacity="0.35" class="amcharts-map-area amcharts-map-area-KW-AH" role="menuitem" aria-label="Al Ahmadi  " countryId="KW-AH" cursor="pointer"></path>
                    <path cs="100,100" d="M621.19,388.57L614.06,371.7L560.71,381.53L550.95,402.61L565.9,441.73L632.05,430.32L621.19,388.57z" transform="translate(-1,-620)" stroke-width="0.8174322754435266" fill="#797979" fill-opacity="0.47" stroke="#505050" stroke-opacity="0.35" class="amcharts-map-area amcharts-map-area-KW-FA" role="menuitem" aria-label="Al Farwaniyah  " countryId="KW-FA" cursor="pointer"></path>
                </g>
            </g>
        </g>
    </svg>