<?xml version="1.0" encoding="UTF-8" standalone="no" ?>
    <!DOCTYPE svg PUBLIC "-//W3C//DTD SVG 1.1//EN" "http://www.w3.org/Graphics/SVG/1.1/DTD/svg11.dtd">
    <svg version="1.1" xmlns="http://www.w3.org/2000/svg" xmlns:xlink="http://www.w3.org/1999/xlink" width="1629" height="923" xml:space="preserve">
        <style>
          path { 
            stroke-width: 0.5;
            fill: #616161;
            fill-opacity: 0.4;
            stroke: #000000;
            stroke-opacity: 0.75; 
          }
        </style>
        <g>
            <g transform="translate(461.30043965560384,1094.1637736482521) scale(1)">
                <g transform="translate(0,0) scale(0.8839049033869623)">
                    <path cs="100,100" d="M273.41,755.63L264.27,694.12L200.72,716.14L147.77,704.79L91.43,788.9L40.24,971.57L0.38,1015.27L100.9,1016.58L175.98,880.26L135.43,877.84L105.02,845.77L117.7,829.04L142.76,838.77L165.44,779.76L225.62,761.03L235.91,858.19L284.72,804.3L273.41,755.63z" transform="translate(0,-1238)" stroke-width="1.1313434241264897" fill="#797979" fill-opacity="0.47" stroke="#505050" stroke-opacity="0.35" class="amcharts-map-area amcharts-map-area-LB-JA" role="menuitem" aria-label="South Lebanon  " countryId="LB-JA"></path>
                    <path cs="100,100" d="M130.82,1044.23L202.53,1024.07L239.37,901.16L268.25,927.16L396.42,813.57L327.9,774.11L284.72,804.3L235.91,858.19L225.62,761.03L165.44,779.76L142.76,838.77L117.7,829.04L105.02,845.77L135.43,877.84L175.98,880.26L100.9,1016.58L130.82,1044.23z" transform="translate(0,-1238)" stroke-width="1.1313434241264897" fill="#797979" fill-opacity="0.47" stroke="#505050" stroke-opacity="0.35" class="amcharts-map-area amcharts-map-area-LB-NA" role="menuitem" aria-label="An Nabatiyah  " countryId="LB-NA"></path>
                    <path cs="100,100" d="M484.71,344.74L290.09,302.72L287.92,442.75L238.63,502.45L204.05,528.71L147.77,704.79L200.72,716.14L264.27,694.12L273.41,755.63L341.11,612.09L376.47,582.57L356.59,565.23L453.8,446.78L484.71,344.74z" transform="translate(0,-1238)" stroke-width="1.1313434241264897" fill="#797979" fill-opacity="0.47" stroke="#505050" stroke-opacity="0.35" class="amcharts-map-area amcharts-map-area-LB-JL" role="menuitem" aria-label="Mount Lebanon  " countryId="LB-JL"></path>
                    <path cs="100,100" d="M238.63,502.45L200.24,500.03L204.05,528.71L238.63,502.45z" transform="translate(0,-1238)" stroke-width="1.1313434241264897" fill="#797979" fill-opacity="0.47" stroke="#505050" stroke-opacity="0.35" class="amcharts-map-area amcharts-map-area-LB-BA" role="menuitem" aria-label="Beirut  " countryId="LB-BA"></path>
                    <path cs="100,100" d="M642.81,0L617.66,38.95L462.71,24.35L469.75,96.12L427.34,135.23L375.33,143.64L375.72,175.8L300.85,242.5L290.09,302.72L484.71,344.74L610.99,145.8L653.93,121.93L712.54,37.58L673.94,37.68L642.81,0z" transform="translate(0,-1238)" stroke-width="1.1313434241264897" fill="#797979" fill-opacity="0.47" stroke="#505050" stroke-opacity="0.35" class="amcharts-map-area amcharts-map-area-LB-AS" role="menuitem" aria-label="North Lebanon  " countryId="LB-AS"></path>
                    <path cs="100,100" d="M396.42,813.57L435.93,785.81L443.23,744.1L497.42,718.62L437.03,672.38L475.51,595.5L552.16,538.01L668.61,555.18L674,533.58L621.56,502.08L631.99,476.64L686.46,413.71L731.15,408.08L799.62,314.64L787.87,249.86L754.21,215.29L757.67,170.68L708.97,124.69L653.93,121.93L610.99,145.8L484.71,344.74L453.8,446.78L356.59,565.23L376.47,582.57L341.11,612.09L273.41,755.63L284.72,804.3L327.9,774.11L396.42,813.57z" transform="translate(0,-1238)" stroke-width="1.1313434241264897" fill="#797979" fill-opacity="0.47" stroke="#505050" stroke-opacity="0.35" class="amcharts-map-area amcharts-map-area-LB-BI" role="menuitem" aria-label="Beqaa  " countryId="LB-BI"></path>
                </g>
            </g>
        </g>
    </svg>