<?xml version="1.0" encoding="UTF-8" standalone="no" ?>
    <!DOCTYPE svg PUBLIC "-//W3C//DTD SVG 1.1//EN" "http://www.w3.org/Graphics/SVG/1.1/DTD/svg11.dtd">
    <svg version="1.1" xmlns="http://www.w3.org/2000/svg" xmlns:xlink="http://www.w3.org/1999/xlink" width="1629" height="923" xml:space="preserve">
        <style>
          path { 
            stroke-width: 0.5;
            fill: #616161;
            fill-opacity: 0.4;
            stroke: #000000;
            stroke-opacity: 0.75; 
          }
        </style>
        <g>
            <g transform="translate(336.5924319225413,122.10284103440718) scale(1)">
                <g transform="translate(0,0) scale(1.1963241415776977)">
                    <path cs="100,100" d="M236.97,352.67L188.1,345.8L105.65,404.02L106.9,441.29L145.18,439.93L234.51,402.37L245.18,378.51L236.97,352.67z" transform="translate(-1,-102)" stroke-width="0.8358938562263002" fill="#797979" fill-opacity="0.47" stroke="#505050" stroke-opacity="0.35" class="amcharts-map-area amcharts-map-area-LY-WD" role="menuitem" aria-label="Wadi al Hayaa  " countryId="LY-WD"></path>
                    <path cs="100,100" d="M790.67,297.68L790.32,232.14L775.94,177.43L791.36,142.24L784.01,109.12L799.48,90.55L790.69,72.49L703.58,57.71L689.36,141.4L694.05,295.25L790.67,297.68z" transform="translate(-1,-102)" stroke-width="0.8358938562263002" fill="#797979" fill-opacity="0.47" stroke="#505050" stroke-opacity="0.35" class="amcharts-map-area amcharts-map-area-LY-BU" role="menuitem" aria-label="Al Butnan  " countryId="LY-BU"></path>
                    <path cs="100,100" d="M703.58,57.71L696.27,32.47L639.88,16.11L636.44,113.04L646.24,122.59L689.36,141.4L703.58,57.71z" transform="translate(-1,-102)" stroke-width="0.8358938562263002" fill="#797979" fill-opacity="0.47" stroke="#505050" stroke-opacity="0.35" class="amcharts-map-area amcharts-map-area-LY-DR" role="menuitem" aria-label="Darnah  " countryId="LY-DR"></path>
                    <path cs="100,100" d="M478.97,166.48L407.27,124.54L345.42,114.27L365.25,209.36L359.58,222.33L405.66,229.62L418.06,223.15L438.3,261.26L464.33,274.5L478.97,166.48z" transform="translate(-1,-102)" stroke-width="0.8358938562263002" fill="#797979" fill-opacity="0.47" stroke="#505050" stroke-opacity="0.35" class="amcharts-map-area amcharts-map-area-LY-SR" role="menuitem" aria-label="Surt  " countryId="LY-SR"></path>
                    <path cs="100,100" d="M606.3,127.57L601.08,97.76L567.51,95.48L557.53,74.82L568.89,37.08L536.87,73.09L547.02,116.47L569.78,129.22L606.3,127.57z" transform="translate(-1,-102)" stroke-width="0.8358938562263002" fill="#797979" fill-opacity="0.47" stroke="#505050" stroke-opacity="0.35" class="amcharts-map-area amcharts-map-area-LY-BA" role="menuitem" aria-label="Benghazi  " countryId="LY-BA"></path>
                    <path cs="100,100" d="M606.3,127.57L569.78,129.22L547.02,116.47L541.73,140.25L520.58,163.52L496.89,172.65L478.97,166.48L464.33,274.5L498.21,283.36L498.09,359.23L790.67,357.18L790.67,297.68L694.05,295.25L689.36,141.4L646.24,122.59L626.34,125.78L606.3,127.57z" transform="translate(-1,-102)" stroke-width="0.8358938562263002" fill="#797979" fill-opacity="0.47" stroke="#505050" stroke-opacity="0.35" class="amcharts-map-area amcharts-map-area-LY-WA" role="menuitem" aria-label="Al Wahat  " countryId="LY-WA"></path>
                    <path cs="100,100" d="M639.88,16.11L608.21,24.06L626.34,125.78L646.24,122.59L636.44,113.04L639.88,16.11z" transform="translate(-1,-102)" stroke-width="0.8358938562263002" fill="#797979" fill-opacity="0.47" stroke="#505050" stroke-opacity="0.35" class="amcharts-map-area amcharts-map-area-LY-JA" role="menuitem" aria-label="Al Jabal al Akhdar  " countryId="LY-JA"></path>
                    <path cs="100,100" d="M608.21,24.06L568.89,37.08L557.53,74.82L567.51,95.48L601.08,97.76L606.3,127.57L626.34,125.78L608.21,24.06z" transform="translate(-1,-102)" stroke-width="0.8358938562263002" fill="#797979" fill-opacity="0.47" stroke="#505050" stroke-opacity="0.35" class="amcharts-map-area amcharts-map-area-LY-MJ" role="menuitem" aria-label="Al Marj  " countryId="LY-MJ"></path>
                    <path cs="100,100" d="M235.52,25.39L192.67,18.24L191.32,27.6L199.38,50.74L235.52,25.39z" transform="translate(-1,-102)" stroke-width="0.8358938562263002" fill="#797979" fill-opacity="0.47" stroke="#505050" stroke-opacity="0.35" class="amcharts-map-area amcharts-map-area-LY-TB" role="menuitem" aria-label="Tripoli  " countryId="LY-TB"></path>
                    <path cs="100,100" d="M207.49,67.57L200.1,51.71L178.39,55.12L130.21,52.3L135.27,124.88L116.48,156.44L123.5,240.9L134.7,269.17L171.79,278.61L233.31,213.15L258.95,233.86L275.7,222.53L280.82,196.08L285.65,164.23L248.47,145.99L207.49,67.57z" transform="translate(-1,-102)" stroke-width="0.8358938562263002" fill="#797979" fill-opacity="0.47" stroke="#505050" stroke-opacity="0.35" class="amcharts-map-area amcharts-map-area-LY-JG" role="menuitem" aria-label="Al Jabal al Gharbi  " countryId="LY-JG"></path>
                    <path cs="100,100" d="M191.32,27.6L192.67,18.24L165.98,22.13L130.21,52.3L178.39,55.12L191.32,27.6z" transform="translate(-1,-102)" stroke-width="0.8358938562263002" fill="#797979" fill-opacity="0.47" stroke="#505050" stroke-opacity="0.35" class="amcharts-map-area amcharts-map-area-LY-ZA" role="menuitem" aria-label="Az Zawiyah  " countryId="LY-ZA"></path>
                    <path cs="100,100" d="M112.21,0L113.27,45.72L130.21,52.3L165.98,22.13L112.21,0z" transform="translate(-1,-102)" stroke-width="0.8358938562263002" fill="#797979" fill-opacity="0.47" stroke="#505050" stroke-opacity="0.35" class="amcharts-map-area amcharts-map-area-LY-NQ" role="menuitem" aria-label="An Nuqat al Khams  " countryId="LY-NQ"></path>
                    <path cs="100,100" d="M199.38,50.74L191.32,27.6L178.39,55.12L200.1,51.71L199.38,50.74z" transform="translate(-1,-102)" stroke-width="0.8358938562263002" fill="#797979" fill-opacity="0.47" stroke="#505050" stroke-opacity="0.35" class="amcharts-map-area amcharts-map-area-LY-JI" role="menuitem" aria-label="Al Jifarah  " countryId="LY-JI"></path>
                    <path cs="100,100" d="M328.23,319.08L291.61,324.15L259.02,350.19L236.97,352.67L245.18,378.51L234.51,402.37L259.18,395.1L279.48,373.62L352.59,355.71L328.23,319.08z" transform="translate(-1,-102)" stroke-width="0.8358938562263002" fill="#797979" fill-opacity="0.47" stroke="#505050" stroke-opacity="0.35" class="amcharts-map-area amcharts-map-area-LY-SB" role="menuitem" aria-label="Sabha  " countryId="LY-SB"></path>
                    <path cs="100,100" d="M345.42,114.27L314.06,92.6L301.74,51.03L275.87,43.83L271.38,72.5L243.96,62.12L207.49,67.57L248.47,145.99L285.65,164.23L280.82,196.08L325.45,223.19L359.58,222.33L365.25,209.36L345.42,114.27z" transform="translate(-1,-102)" stroke-width="0.8358938562263002" fill="#797979" fill-opacity="0.47" stroke="#505050" stroke-opacity="0.35" class="amcharts-map-area amcharts-map-area-LY-MI" role="menuitem" aria-label="Misratah  " countryId="LY-MI"></path>
                    <path cs="100,100" d="M498,416L449.47,395.09L409.49,413.29L385.86,407.05L352.53,368.64L352.59,355.71L279.48,373.62L259.18,395.1L234.51,402.37L145.18,439.93L106.9,441.29L110.31,509.32L135.56,553.87L211.75,572.39L248.7,603.18L337.76,557.86L498.9,644.09L498,416z" transform="translate(-1,-102)" stroke-width="0.8358938562263002" fill="#797979" fill-opacity="0.47" stroke="#505050" stroke-opacity="0.35" class="amcharts-map-area amcharts-map-area-LY-MQ" role="menuitem" aria-label="Murzuq  " countryId="LY-MQ"></path>
                    <path cs="100,100" d="M105.65,404.02L92.16,335.26L32.98,313.53L22.41,343.44L31.22,379.55L6.29,409.86L36.84,453.56L38.05,479.97L49.54,495.47L110.31,509.32L106.9,441.29L105.65,404.02z" transform="translate(-1,-102)" stroke-width="0.8358938562263002" fill="#797979" fill-opacity="0.47" stroke="#505050" stroke-opacity="0.35" class="amcharts-map-area amcharts-map-area-LY-GT" role="menuitem" aria-label="Ghat  " countryId="LY-GT"></path>
                    <path cs="100,100" d="M258.95,233.86L233.31,213.15L171.79,278.61L134.7,269.17L103.09,272.05L82.24,254.85L58.63,267.48L27.74,267.82L32.98,313.53L92.16,335.26L105.65,404.02L188.1,345.8L236.97,352.67L259.02,350.19L291.61,324.15L328.23,319.08L332.41,298.68L317.85,290.94L289.05,294.93L286.08,279.91L259.09,252.9L258.95,233.86z" transform="translate(-1,-102)" stroke-width="0.8358938562263002" fill="#797979" fill-opacity="0.47" stroke="#505050" stroke-opacity="0.35" class="amcharts-map-area amcharts-map-area-LY-WS" role="menuitem" aria-label="Wadi ash Shati'  " countryId="LY-WS"></path>
                    <path cs="100,100" d="M275.87,43.83L235.52,25.39L199.38,50.74L200.1,51.71L207.49,67.57L243.96,62.12L271.38,72.5L275.87,43.83z" transform="translate(-1,-102)" stroke-width="0.8358938562263002" fill="#797979" fill-opacity="0.47" stroke="#505050" stroke-opacity="0.35" class="amcharts-map-area amcharts-map-area-LY-MB" role="menuitem" aria-label="Al Marqab  " countryId="LY-MB"></path>
                    <path cs="100,100" d="M740.33,771.53L740.33,744.82L790.45,744.79L790.67,357.18L498.09,359.23L498,416L498.9,644.09L740.33,771.53z" transform="translate(-1,-102)" stroke-width="0.8358938562263002" fill="#797979" fill-opacity="0.47" stroke="#505050" stroke-opacity="0.35" class="amcharts-map-area amcharts-map-area-LY-KF" role="menuitem" aria-label="Al Kufrah  " countryId="LY-KF"></path>
                    <path cs="100,100" d="M359.58,222.33L325.45,223.19L280.82,196.08L275.7,222.53L258.95,233.86L259.09,252.9L286.08,279.91L289.05,294.93L317.85,290.94L332.41,298.68L328.23,319.08L352.59,355.71L352.53,368.64L385.86,407.05L409.49,413.29L449.47,395.09L498,416L498.09,359.23L498.21,283.36L464.33,274.5L438.3,261.26L418.06,223.15L405.66,229.62L359.58,222.33z" transform="translate(-1,-102)" stroke-width="0.8358938562263002" fill="#797979" fill-opacity="0.47" stroke="#505050" stroke-opacity="0.35" class="amcharts-map-area amcharts-map-area-LY-JU" role="menuitem" aria-label="Al Jufrah  " countryId="LY-JU"></path>
                    <path cs="100,100" d="M130.21,52.3L113.27,45.72L49.73,89.52L41.79,104.37L46.11,145.4L29.96,167.38L0.52,181.25L19.71,210.79L27.74,267.82L58.63,267.48L82.24,254.85L103.09,272.05L134.7,269.17L123.5,240.9L116.48,156.44L135.27,124.88L130.21,52.3z" transform="translate(-1,-102)" stroke-width="0.8358938562263002" fill="#797979" fill-opacity="0.47" stroke="#505050" stroke-opacity="0.35" class="amcharts-map-area amcharts-map-area-LY-NL" role="menuitem" aria-label="Nalut  " countryId="LY-NL"></path>
                </g>
            </g>
        </g>
    </svg>