<?xml version="1.0" encoding="UTF-8" standalone="no" ?>
    <!DOCTYPE svg PUBLIC "-//W3C//DTD SVG 1.1//EN" "http://www.w3.org/Graphics/SVG/1.1/DTD/svg11.dtd">
    <svg version="1.1" xmlns="http://www.w3.org/2000/svg" xmlns:xlink="http://www.w3.org/1999/xlink" width="1629" height="923" xml:space="preserve">
        <style>
          path { 
            stroke-width: 0.5;
            fill: #616161;
            fill-opacity: 0.4;
            stroke: #000000;
            stroke-opacity: 0.75; 
          }
        </style>
        <g>
            <g transform="translate(386.47805457146734,-644.373316662248) scale(1)">
                <g transform="translate(0,0) scale(1.0711259895608927)">
                    <path cs="100,100" d="M272.14,326.44L239.02,670.25L298.29,731.63L394.16,696.29L481.32,594.02L296.54,330.15L272.14,326.44z" transform="translate(0,602)" stroke-width="0.9335969902195626" fill="#797979" fill-opacity="0.47" stroke="#505050" stroke-opacity="0.35" class="amcharts-map-area amcharts-map-area-MU-PW" role="menuitem" aria-label="Plaines Wilhems  " countryId="MU-PW"></path>
                    <path cs="100,100" d="M394.56,349.21L383.7,211.31L309.45,211.51L260.83,279.33L272.14,326.44L296.54,330.15L394.56,349.21z" transform="translate(0,602)" stroke-width="0.9335969902195626" fill="#797979" fill-opacity="0.47" stroke="#505050" stroke-opacity="0.35" class="amcharts-map-area amcharts-map-area-MU-PL" role="menuitem" aria-label="Port Louis  " countryId="MU-PL"></path>
                    <path cs="100,100" d="M155.95,861.71L532.07,851.42L472.6,701.87L394.16,696.29L298.29,731.63L143.15,783.71L155.95,861.71z" transform="translate(0,602)" stroke-width="0.9335969902195626" fill="#797979" fill-opacity="0.47" stroke="#505050" stroke-opacity="0.35" class="amcharts-map-area amcharts-map-area-MU-SA" role="menuitem" aria-label="Savanne  " countryId="MU-SA"></path>
                    <path cs="100,100" d="M155.95,861.71L143.15,783.71L298.29,731.63L239.02,670.25L272.14,326.44L260.83,279.33L120.54,420.37L88.57,739.47L0.46,745.53L155.95,861.71z" transform="translate(0,602)" stroke-width="0.9335969902195626" fill="#797979" fill-opacity="0.47" stroke="#505050" stroke-opacity="0.35" class="amcharts-map-area amcharts-map-area-MU-RN" role="menuitem" aria-label="Rivière Noire  " countryId="MU-RN"></path>
                    <path cs="100,100" d="M449.87,0L531.87,268.87L698.74,166.21L611.16,0L449.87,0z" transform="translate(0,602)" stroke-width="0.9335969902195626" fill="#797979" fill-opacity="0.47" stroke="#505050" stroke-opacity="0.35" class="amcharts-map-area amcharts-map-area-MU-RR" role="menuitem" aria-label="Rivière du Rempart  " countryId="MU-RR"></path>
                    <path cs="100,100" d="M449.87,0L309.45,211.51L383.7,211.31L394.56,349.21L494.58,319.64L531.87,268.87L449.87,0z" transform="translate(0,602)" stroke-width="0.9335969902195626" fill="#797979" fill-opacity="0.47" stroke="#505050" stroke-opacity="0.35" class="amcharts-map-area amcharts-map-area-MU-PA" role="menuitem" aria-label="Pamplemousses  " countryId="MU-PA"></path>
                    <path cs="100,100" d="M394.56,349.21L296.54,330.15L481.32,594.02L592.88,567.99L530.12,436.04L582.42,384.02L494.58,319.64L394.56,349.21z" transform="translate(0,602)" stroke-width="0.9335969902195626" fill="#797979" fill-opacity="0.47" stroke="#505050" stroke-opacity="0.35" class="amcharts-map-area amcharts-map-area-MU-MO" role="menuitem" aria-label="Moka  " countryId="MU-MO"></path>
                    <path cs="100,100" d="M771,527.12L592.88,567.99L481.32,594.02L394.16,696.29L472.6,701.87L532.07,851.42L681.97,751.31L664,670.26L771,527.12z" transform="translate(0,602)" stroke-width="0.9335969902195626" fill="#797979" fill-opacity="0.47" stroke="#505050" stroke-opacity="0.35" class="amcharts-map-area amcharts-map-area-MU-GP" role="menuitem" aria-label="Grand Port  " countryId="MU-GP"></path>
                    <path cs="100,100" d="M771,527.12L799.54,385.18L698.74,166.21L531.87,268.87L494.58,319.64L582.42,384.02L530.12,436.04L592.88,567.99L771,527.12z" transform="translate(0,602)" stroke-width="0.9335969902195626" fill="#797979" fill-opacity="0.47" stroke="#505050" stroke-opacity="0.35" class="amcharts-map-area amcharts-map-area-MU-BL" role="menuitem" aria-label="Flacq  " countryId="MU-BL"></path>
                </g>
            </g>
        </g>
    </svg>