<?xml version="1.0" encoding="UTF-8" standalone="no" ?>
    <!DOCTYPE svg PUBLIC "-//W3C//DTD SVG 1.1//EN" "http://www.w3.org/Graphics/SVG/1.1/DTD/svg11.dtd">
    <svg version="1.1" xmlns="http://www.w3.org/2000/svg" xmlns:xlink="http://www.w3.org/1999/xlink" width="1629" height="923" xml:space="preserve">
        <style>
          path { 
            stroke-width: 0.5;
            fill: #616161;
            fill-opacity: 0.4;
            stroke: #000000;
            stroke-opacity: 0.75; 
          }
        </style>
        <g>
            <g transform="translate(282.8825767615246,-0.02660551298502034) scale(1)">
                <g transform="translate(0,0) scale(1.3310067931160345)">
                    <path cs="100,100" d="M547.16,306.01L502.97,280.87L442.44,332.09L456.9,396.2L532.18,397.19L547.16,306.01z" transform="translate(-1,0)" stroke-width="0.7513109663842429" fill="#797979" fill-opacity="0.47" stroke="#505050" stroke-opacity="0.35" class="amcharts-map-area amcharts-map-area-RW-01" role="menuitem" aria-label="Kigali City  " countryId="RW-01"></path>
                    <path cs="100,100" d="M475.85,126.3L417.37,161.06L377.49,100.94L268.23,132.36L231.39,169.76L304.43,205.44L315.09,262.63L442.44,332.09L502.97,280.87L547.16,306.01L551.31,249.48L475.85,126.3z" transform="translate(-1,0)" stroke-width="0.7513109663842429" fill="#797979" fill-opacity="0.47" stroke="#505050" stroke-opacity="0.35" class="amcharts-map-area amcharts-map-area-RW-03" role="menuitem" aria-label="Northern  " countryId="RW-03"></path>
                    <path cs="100,100" d="M189.9,693.46L380.42,668.64L432.86,496.63L456.9,396.2L442.44,332.09L315.09,262.63L294.66,439.58L189.43,485.64L163.02,548.52L197.88,609.17L178,639.72L189.9,693.46z" transform="translate(-1,0)" stroke-width="0.7513109663842429" fill="#797979" fill-opacity="0.47" stroke="#505050" stroke-opacity="0.35" class="amcharts-map-area amcharts-map-area-RW-05" role="menuitem" aria-label="Southern  " countryId="RW-05"></path>
                    <path cs="100,100" d="M582.74,0L475.85,126.3L551.31,249.48L547.16,306.01L532.18,397.19L456.9,396.2L432.86,496.63L495.86,537.81L598.93,487.18L655.29,525.14L748.64,517.93L782.46,496.47L799.42,400.28L763.66,339.94L777.06,207.91L740.26,134.07L668.52,99.31L635.63,0.24L582.74,0z" transform="translate(-1,0)" stroke-width="0.7513109663842429" fill="#797979" fill-opacity="0.47" stroke="#505050" stroke-opacity="0.35" class="amcharts-map-area amcharts-map-area-RW-02" role="menuitem" aria-label="Eastern  " countryId="RW-02" cursor="pointer"></path>
                    <path cs="100,100" d="M315.09,262.63L304.43,205.44L231.39,169.76L191.12,177.34L114.94,288.72L109.24,445.69L0.58,532.55L31.12,637.72L62.2,651.78L68.98,612.35L100.82,602.08L178,639.72L197.88,609.17L163.02,548.52L189.43,485.64L294.66,439.58L315.09,262.63z" transform="translate(-1,0)" stroke-width="0.7513109663842429" fill="#797979" fill-opacity="0.47" stroke="#505050" stroke-opacity="0.35" class="amcharts-map-area amcharts-map-area-RW-04" role="menuitem" aria-label="Western  " countryId="RW-04"></path>
                </g>
            </g>
        </g>
    </svg>