<?xml version="1.0" encoding="UTF-8" standalone="no" ?>
    <!DOCTYPE svg PUBLIC "-//W3C//DTD SVG 1.1//EN" "http://www.w3.org/Graphics/SVG/1.1/DTD/svg11.dtd">
    <svg version="1.1" xmlns="http://www.w3.org/2000/svg" xmlns:xlink="http://www.w3.org/1999/xlink" width="1629" height="923" xml:space="preserve">
        <style>
          path { 
            stroke-width: 0.5;
            fill: #616161;
            fill-opacity: 0.4;
            stroke: #000000;
            stroke-opacity: 0.75; 
          }
        </style>
        <g>
            <g transform="translate(365.3088558622588,2.4307199861963267) scale(1)">
                <g transform="translate(0,0) scale(1.5531660182488198)">
                    <path cs="100,100" d="M109.28,-838.87L109.28,-838.87L121.47,-819.44L136.31,-805.28L91.91,-806.11L105.95,-841.06L109.28,-838.87z" transform="translate(293,853)" stroke-width="0.6438461750067714" fill="#797979" fill-opacity="0.47" stroke="#505050" stroke-opacity="0.35" class="amcharts-map-area amcharts-map-area-SR-WA" role="menuitem" aria-label="Wanica  " countryId="SR-WA"></path>
                    <path cs="100,100" d="M105.95,-841.06L105.95,-841.06L91.91,-806.11L78.65,-771L14.19,-768.26L11.79,-787.18L3.63,-800.22L14.58,-806.68L6.93,-835.89L18.73,-848.48L105.95,-841.06z" transform="translate(293,853)" stroke-width="0.6438461750067714" fill="#797979" fill-opacity="0.47" stroke="#505050" stroke-opacity="0.35" class="amcharts-map-area amcharts-map-area-SR-SA" role="menuitem" aria-label="Saramacca  " countryId="SR-SA"></path>
                    <path cs="100,100" d="M123.63,-827.31L123.63,-827.31L121.47,-819.44L109.28,-838.87L123.63,-827.31z" transform="translate(293,853)" stroke-width="0.6438461750067714" fill="#797979" fill-opacity="0.47" stroke="#505050" stroke-opacity="0.35" class="amcharts-map-area amcharts-map-area-SR-PM" role="menuitem" aria-label="Paramaribo  " countryId="SR-PM"></path>
                    <path cs="100,100" d="M14.58,-806.68L14.58,-806.68L3.63,-800.22L11.79,-787.18L-8.51,-766.53L-68.65,-755.39L-80.85,-783.2L-70.64,-787.63L-85.65,-845.7L9.08,-824.93L14.58,-806.68z" transform="translate(293,853)" stroke-width="0.6438461750067714" fill="#797979" fill-opacity="0.47" stroke="#505050" stroke-opacity="0.35" class="amcharts-map-area amcharts-map-area-SR-CR" role="menuitem" aria-label="Coronie  " countryId="SR-CR"></path>
                    <path cs="100,100" d="M183.74,-849.2L183.74,-849.2L178.98,-820.61L194.65,-789.95L137.55,-786.07L136.31,-805.28L121.47,-819.44L123.63,-827.31L161.3,-832.18L124.05,-841.19L125.29,-850.69L183.74,-849.2z" transform="translate(293,853)" stroke-width="0.6438461750067714" fill="#797979" fill-opacity="0.47" stroke="#505050" stroke-opacity="0.35" class="amcharts-map-area amcharts-map-area-SR-CM" role="menuitem" aria-label="Commewijne  " countryId="SR-CM"></path>
                    <path cs="100,100" d="M259.49,-759.89L259.49,-759.89L238.25,-740.52L190.83,-763.63L194.65,-789.95L178.98,-820.61L183.74,-849.2L280.84,-828.58L259.49,-759.89z" transform="translate(293,853)" stroke-width="0.6438461750067714" fill="#797979" fill-opacity="0.47" stroke="#505050" stroke-opacity="0.35" class="amcharts-map-area amcharts-map-area-SR-MA" role="menuitem" aria-label="Marowijne  " countryId="SR-MA"></path>
                    <path cs="100,100" d="M160.9,-706.72L160.9,-706.72L162.97,-707.55L178.75,-694.65L156.44,-600.57L103.55,-569.63L88.46,-689.42L70.51,-721.72L92.17,-755.11L141.09,-755.76L160.9,-706.72z" transform="translate(293,853)" stroke-width="0.6438461750067714" fill="#797979" fill-opacity="0.47" stroke="#505050" stroke-opacity="0.35" class="amcharts-map-area amcharts-map-area-SR-BR" role="menuitem" aria-label="Brokopondo  " countryId="SR-BR"></path>
                    <path cs="100,100" d="M-162.74,-809.79L-162.74,-809.79L-166.52,-816.18L-162.62,-825.6L-162.74,-809.79zM-70.64,-787.63L-70.64,-787.63L-80.85,-783.2L-68.65,-755.39L-174.86,-747.38L-189.5,-755.4L-165.09,-789.63L-151.24,-845.67L-135.71,-854.44L-85.65,-845.7L-70.64,-787.63z" transform="translate(293,853)" stroke-width="0.6438461750067714" fill="#797979" fill-opacity="0.47" stroke="#505050" stroke-opacity="0.35" class="amcharts-map-area amcharts-map-area-SR-NI" role="menuitem" aria-label="Nickerie  " countryId="SR-NI"></path>
                    <path cs="100,100" d="M8.34,-723.05L8.34,-723.05L35.01,-722.69L45.88,-707.14L70.51,-721.72L88.46,-689.42L103.55,-569.63L156.44,-600.57L178.75,-694.65L162.97,-707.55L190.83,-763.63L238.25,-740.52L214.69,-696.44L225.5,-597.62L285.33,-512.64L253.78,-443.91L259.6,-404.94L230.45,-352.49L191.05,-328.74L183.35,-347.74L158.86,-347.31L147.67,-370.27L39.11,-340.15L2.41,-358.55L-20.82,-320.17L11.6,-290.95L11.06,-267.65L-2.79,-260.17L-100.05,-288.01L-170.57,-403.97L-185.63,-481.92L-234.08,-480.65L-233.24,-499.23L-288.3,-566.2L-293.1,-592.39L-260.68,-660.55L-272.18,-686.02L-239.33,-711.15L-181.66,-713.98L-182.87,-734.62L-168.1,-736.35L-174.86,-747.38L-68.65,-755.39L-8.51,-766.53L11.79,-787.18L0.04,-732.23L8.34,-723.05z" transform="translate(293,853)" stroke-width="0.6438461750067714" fill="#797979" fill-opacity="0.47" stroke="#505050" stroke-opacity="0.35" class="amcharts-map-area amcharts-map-area-SR-SI" role="menuitem" aria-label="Sipaliwini  " countryId="SR-SI" cursor="pointer"></path>
                    <path cs="100,100" d="M136.31,-805.28L136.31,-805.28L137.55,-786.07L194.65,-789.95L190.83,-763.63L162.97,-707.55L160.9,-706.72L141.09,-755.76L92.17,-755.11L70.51,-721.72L45.88,-707.14L35.01,-722.69L8.34,-723.05L0.04,-732.23L11.79,-787.18L14.19,-768.26L78.65,-771L91.91,-806.11L136.31,-805.28z" transform="translate(293,853)" stroke-width="0.6438461750067714" fill="#797979" fill-opacity="0.47" stroke="#505050" stroke-opacity="0.35" class="amcharts-map-area amcharts-map-area-SR-PR" role="menuitem" aria-label="Para  " countryId="SR-PR"></path>
                </g>
            </g>
        </g>
    </svg>