<?xml version="1.0" encoding="UTF-8" standalone="no" ?>
    <!DOCTYPE svg PUBLIC "-//W3C//DTD SVG 1.1//EN" "http://www.w3.org/Graphics/SVG/1.1/DTD/svg11.dtd">
    <svg version="1.1" xmlns="http://www.w3.org/2000/svg" xmlns:xlink="http://www.w3.org/1999/xlink" width="1629" height="923" xml:space="preserve">
        <style>
          path { 
            stroke-width: 0.5;
            fill: #616161;
            fill-opacity: 0.4;
            stroke: #000000;
            stroke-opacity: 0.75; 
          }
        </style>
        <g>
            <g transform="translate(39.76613509157687,-0.3590803026563705) scale(1)">
                <g transform="translate(0,0) scale(1.94091057447746)">
                    <path cs="100,100" d="M736.17,68.32L734.87,67.41L734.82,68.01L735.96,68.88L736.17,68.32z" transform="translate(-1,0)" stroke-width="0.5152220886164341" fill="#797979" fill-opacity="0.47" stroke="#505050" stroke-opacity="0.35" class="amcharts-map-area amcharts-map-area-SC-25" role="menuitem" aria-label="Roche Caiman  " countryId="SC-25"></path>
                    <path cs="100,100" d="M735.96,68.88L734.82,68.01L735.01,69.41L735.43,69.18L735.96,68.88z" transform="translate(-1,0)" stroke-width="0.5152220886164341" fill="#797979" fill-opacity="0.47" stroke="#505050" stroke-opacity="0.35" class="amcharts-map-area amcharts-map-area-SC-24" role="menuitem" aria-label="Les Mamelles  " countryId="SC-24"></path>
                    <path cs="100,100" d="M736.26,78.26L737.13,79.8L739.8,80.43L738.84,77.75L737.56,77.85L736.26,78.26z" transform="translate(-1,0)" stroke-width="0.5152220886164341" fill="#797979" fill-opacity="0.47" stroke="#505050" stroke-opacity="0.35" class="amcharts-map-area amcharts-map-area-SC-23" role="menuitem" aria-label="Takamaka  " countryId="SC-23"></path>
                    <path cs="100,100" d="M732.63,65.88L731.93,65.43L731.37,66.13L731.65,66.65L732.63,65.88z" transform="translate(-1,0)" stroke-width="0.5152220886164341" fill="#797979" fill-opacity="0.47" stroke="#505050" stroke-opacity="0.35" class="amcharts-map-area amcharts-map-area-SC-22" role="menuitem" aria-label="Saint Louis  " countryId="SC-22"></path>
                    <path cs="100,100" d="M733.56,68.81L732.45,68.26L731.65,66.65L731.37,66.13L729.57,67.52L727.33,66.4L726.15,67.63L728.88,68.44L731.68,70.31L732.76,70.42L733.56,68.81z" transform="translate(-1,0)" stroke-width="0.5152220886164341" fill="#797979" fill-opacity="0.47" stroke="#505050" stroke-opacity="0.35" class="amcharts-map-area amcharts-map-area-SC-21" role="menuitem" aria-label="Port Glaud  " countryId="SC-21"></path>
                    <path cs="100,100" d="M739.06,70.61L737.88,69.49L737.3,70.38L739.06,70.61z" transform="translate(-1,0)" stroke-width="0.5152220886164341" fill="#797979" fill-opacity="0.47" stroke="#505050" stroke-opacity="0.35" class="amcharts-map-area amcharts-map-area-SC-20" role="menuitem" aria-label="Pointe La Rue  " countryId="SC-20"></path>
                    <path cs="100,100" d="M734.87,67.41L734.56,67.01L733.98,67.98L733.56,68.81L735.01,69.41L734.82,68.01L734.87,67.41z" transform="translate(-1,0)" stroke-width="0.5152220886164341" fill="#797979" fill-opacity="0.47" stroke="#505050" stroke-opacity="0.35" class="amcharts-map-area amcharts-map-area-SC-19" role="menuitem" aria-label="Plaisance  " countryId="SC-19"></path>
                    <path cs="100,100" d="M733.98,67.98L734.56,67.01L733.67,66.27L733.98,67.98z" transform="translate(-1,0)" stroke-width="0.5152220886164341" fill="#797979" fill-opacity="0.47" stroke="#505050" stroke-opacity="0.35" class="amcharts-map-area amcharts-map-area-SC-18" role="menuitem" aria-label="Mont Fleuri  " countryId="SC-18"></path>
                    <path cs="100,100" d="M732.63,65.88L732.1,64.59L731.93,65.43L732.63,65.88z" transform="translate(-1,0)" stroke-width="0.5152220886164341" fill="#797979" fill-opacity="0.47" stroke="#505050" stroke-opacity="0.35" class="amcharts-map-area amcharts-map-area-SC-17" role="menuitem" aria-label="Mont Buxton  " countryId="SC-17"></path>
                    <path cs="100,100" d="M733.62,64.12L732.1,64.59L732.63,65.88L733.54,65.67L733.62,64.12z" transform="translate(-1,0)" stroke-width="0.5152220886164341" fill="#797979" fill-opacity="0.47" stroke="#505050" stroke-opacity="0.35" class="amcharts-map-area amcharts-map-area-SC-16" role="menuitem" aria-label="English River  " countryId="SC-16"></path>
                    <path cs="100,100" d="M717.81,56.3L718.52,54.71L717.78,53.35L715.05,51.91L714.74,53.39L715.26,55.3L716.36,56.61L717.81,56.3zM764.05,46.3L765.08,45.56L764.05,43.79L763.08,43.38L762.58,46.13L764.05,46.3zM749.44,0L748.82,0.8L749.93,1.64L749.44,0z" transform="translate(-1,0)" stroke-width="0.5152220886164341" fill="#797979" fill-opacity="0.47" stroke="#505050" stroke-opacity="0.35" class="amcharts-map-area amcharts-map-area-SC-15" role="menuitem" aria-label="La Digue and Inner Islands  " countryId="SC-15"></path>
                    <path cs="100,100" d="M758.02,44.4L755.89,42.72L751.28,39.96L750.83,40.12L752,42.49L754.03,42.8L755.23,44.55L757.32,45.04L758.02,44.4z" transform="translate(-1,0)" stroke-width="0.5152220886164341" fill="#797979" fill-opacity="0.47" stroke="#505050" stroke-opacity="0.35" class="amcharts-map-area amcharts-map-area-SC-14" role="menuitem" aria-label="Grand'Anse Praslin  " countryId="SC-14"></path>
                    <path cs="100,100" d="M735.01,69.41L733.56,68.81L732.76,70.42L734.28,72.62L735.05,72.69L736.42,70.42L735.43,69.18L735.01,69.41z" transform="translate(-1,0)" stroke-width="0.5152220886164341" fill="#797979" fill-opacity="0.47" stroke="#505050" stroke-opacity="0.35" class="amcharts-map-area amcharts-map-area-SC-13" role="menuitem" aria-label="Grand'Anse  " countryId="SC-13"></path>
                    <path cs="100,100" d="M733.93,61.96L731.55,61.26L731.47,63.2L732.1,63.2L732.59,62.19L733.93,61.96z" transform="translate(-1,0)" stroke-width="0.5152220886164341" fill="#797979" fill-opacity="0.47" stroke="#505050" stroke-opacity="0.35" class="amcharts-map-area amcharts-map-area-SC-12" role="menuitem" aria-label="Glacis  " countryId="SC-12"></path>
                    <path cs="100,100" d="M737.88,69.49L736.17,68.32L735.96,68.88L735.43,69.18L736.42,70.42L736.81,70.56L737.11,70.66L737.3,70.38L737.88,69.49z" transform="translate(-1,0)" stroke-width="0.5152220886164341" fill="#797979" fill-opacity="0.47" stroke="#505050" stroke-opacity="0.35" class="amcharts-map-area amcharts-map-area-SC-11" role="menuitem" aria-label="Cascade  " countryId="SC-11"></path>
                    <path cs="100,100" d="M731.37,66.13L730.02,65.25L727.33,66.4L729.57,67.52L731.37,66.13z" transform="translate(-1,0)" stroke-width="0.5152220886164341" fill="#797979" fill-opacity="0.47" stroke="#505050" stroke-opacity="0.35" class="amcharts-map-area amcharts-map-area-SC-10" role="menuitem" aria-label="Bel Ombre  " countryId="SC-10"></path>
                    <path cs="100,100" d="M733.67,66.27L733.54,65.67L732.63,65.88L731.65,66.65L732.45,68.26L733.56,68.81L733.98,67.98L733.67,66.27z" transform="translate(-1,0)" stroke-width="0.5152220886164341" fill="#797979" fill-opacity="0.47" stroke="#505050" stroke-opacity="0.35" class="amcharts-map-area amcharts-map-area-SC-09" role="menuitem" aria-label="Bel Air  " countryId="SC-09"></path>
                    <path cs="100,100" d="M732.1,63.2L731.47,63.2L730.02,65.25L731.37,66.13L731.93,65.43L732.1,64.59L732.1,63.2z" transform="translate(-1,0)" stroke-width="0.5152220886164341" fill="#797979" fill-opacity="0.47" stroke="#505050" stroke-opacity="0.35" class="amcharts-map-area amcharts-map-area-SC-08" role="menuitem" aria-label="Beau Vallon  " countryId="SC-08"></path>
                    <path cs="100,100" d="M758.02,44.4L758.25,42.89L759.53,42.83L758.75,41.87L756.95,42.08L756.33,41.31L754.12,40.66L752.99,39.63L751.28,39.96L755.89,42.72L758.02,44.4zM755.27,39.54L756.04,38.68L753.83,38.56L755.27,39.54z" transform="translate(-1,0)" stroke-width="0.5152220886164341" fill="#797979" fill-opacity="0.47" stroke="#505050" stroke-opacity="0.35" class="amcharts-map-area amcharts-map-area-SC-07" role="menuitem" aria-label="Baie Sainte Anne  " countryId="SC-07"></path>
                    <path cs="100,100" d="M737.2,75.29L736.13,75.07L734.28,75.48L733.91,76.93L735.76,77.12L736.26,78.26L737.56,77.85L737.2,75.29z" transform="translate(-1,0)" stroke-width="0.5152220886164341" fill="#797979" fill-opacity="0.47" stroke="#505050" stroke-opacity="0.35" class="amcharts-map-area amcharts-map-area-SC-06" role="menuitem" aria-label="Baie Lazare  " countryId="SC-06"></path>
                    <path cs="100,100" d="M739.02,75.11L737.43,73.76L737.2,75.29L737.56,77.85L738.84,77.75L738.13,76.19L739.02,75.11z" transform="translate(-1,0)" stroke-width="0.5152220886164341" fill="#797979" fill-opacity="0.47" stroke="#505050" stroke-opacity="0.35" class="amcharts-map-area amcharts-map-area-SC-05" role="menuitem" aria-label="Anse Royale  " countryId="SC-05"></path>
                    <path cs="100,100" d="M737.11,70.66L736.81,70.56L737.43,73.76L739.02,75.11L738.5,72.8L738.88,71.32L737.11,70.66z" transform="translate(-1,0)" stroke-width="0.5152220886164341" fill="#797979" fill-opacity="0.47" stroke="#505050" stroke-opacity="0.35" class="amcharts-map-area amcharts-map-area-SC-04" role="menuitem" aria-label="Au Cap  " countryId="SC-04"></path>
                    <path cs="100,100" d="M733.62,64.12L733.93,61.96L732.59,62.19L732.1,63.2L732.1,64.59L733.62,64.12z" transform="translate(-1,0)" stroke-width="0.5152220886164341" fill="#797979" fill-opacity="0.47" stroke="#505050" stroke-opacity="0.35" class="amcharts-map-area amcharts-map-area-SC-03" role="menuitem" aria-label="Anse Etoile  " countryId="SC-03"></path>
                    <path cs="100,100" d="M736.81,70.56L736.42,70.42L735.05,72.69L736.13,75.07L737.2,75.29L737.43,73.76L736.81,70.56z" transform="translate(-1,0)" stroke-width="0.5152220886164341" fill="#797979" fill-opacity="0.47" stroke="#505050" stroke-opacity="0.35" class="amcharts-map-area amcharts-map-area-SC-02" role="menuitem" aria-label="Anse Boileau  " countryId="SC-02"></path>
                    <path cs="100,100" d="M739.06,70.61L737.3,70.38L737.11,70.66L738.88,71.32L739.06,70.61z" transform="translate(-1,0)" stroke-width="0.5152220886164341" fill="#797979" fill-opacity="0.47" stroke="#505050" stroke-opacity="0.35" class="amcharts-map-area amcharts-map-area-SC-01" role="menuitem" aria-label="Anse aux Pins  " countryId="SC-01"></path>
                    <path cs="100,100" d="M22.4,475.55L24.07,475.19L24.79,473.05L22.98,473.87L22.4,475.55zM25.6,446.19L26.01,445.85L23.66,443.95L19.88,442.35L20.28,444.34L21.54,446.19L18.83,445.6L15.78,447.22L12.26,447.83L9.8,449.26L6.12,449.47L2.67,448.45L0.84,446.19L2.98,451.56L8.16,451.31L14.57,449.33L20.42,449.48L25.6,446.19zM18.24,442.35L9.38,441.45L6.67,442.44L6.9,443.45L9.63,443.41L10.64,442.85L14.46,443.91L16.94,443.61L18.24,442.35zM797.97,267.56L799.16,264.08L797.73,264.86L796.89,266.49L795.96,270.68L797.97,267.56z" transform="translate(-1,0)" stroke-width="0.5152220886164341" fill="#797979" fill-opacity="0.47" stroke="#505050" stroke-opacity="0.35" class="amcharts-map-area amcharts-map-area-SC" role="menuitem" aria-label="Outer Islands  " countryId="SC"></path>
                </g>
            </g>
        </g>
    </svg>