<?xml version="1.0" encoding="UTF-8" standalone="no" ?>
    <!DOCTYPE svg PUBLIC "-//W3C//DTD SVG 1.1//EN" "http://www.w3.org/Graphics/SVG/1.1/DTD/svg11.dtd">
    <svg version="1.1" xmlns="http://www.w3.org/2000/svg" xmlns:xlink="http://www.w3.org/1999/xlink" width="1789" height="923" xml:space="preserve">
        <style>
          path { 
            stroke-width: 0.5;
            fill: #616161;
            fill-opacity: 0.4;
            stroke: #000000;
            stroke-opacity: 0.75; 
          }
        </style>
        <g>
            <g transform="translate(-0.000005475885509365064,69.99784118799464) scale(1)">
                <g transform="translate(0,0) scale(2.2429227087482397)">
                    <path cs="100,100" d="M656.72,153.74L727.86,132.78L798.81,68.79L714.71,42.71L646.96,72.71L676.97,119.14L659.3,137.88L656.72,153.74z" transform="translate(-1,7)" stroke-width="0.4458468390817147" fill="#6d6d6d" fill-opacity="1" stroke="#505050" stroke-opacity="1" class="amcharts-map-area amcharts-map-area-TL-LA" role="menuitem" aria-label="Lautem  " countryId="TL-LA"></path>
                    <path cs="100,100" d="M605.81,134.63L590.4,115.94L584.77,140.32L513.79,134.1L487.95,161.87L513.3,212.49L656.72,153.74L659.3,137.88L605.81,134.63z" transform="translate(-1,7)" stroke-width="0.4458468390817147" fill="#6d6d6d" fill-opacity="1" stroke="#505050" stroke-opacity="1" class="amcharts-map-area amcharts-map-area-TL-VI" role="menuitem" aria-label="Viqueque  " countryId="TL-VI"></path>
                    <path cs="100,100" d="M432.45,151.82L404.04,162.01L377.48,212.29L399.63,260.06L491.32,226.61L432.45,151.82z" transform="translate(-1,7)" stroke-width="0.4458468390817147" fill="#6d6d6d" fill-opacity="1" stroke="#505050" stroke-opacity="1" class="amcharts-map-area amcharts-map-area-TL-MF" role="menuitem" aria-label="Manufahi  " countryId="TL-MF"></path>
                    <path cs="100,100" d="M514.24,90.31L438.12,87.38L442.36,92.94L422.36,109.96L432.45,151.82L491.32,226.61L513.3,212.49L487.95,161.87L513.79,134.1L514.24,90.31z" transform="translate(-1,7)" stroke-width="0.4458468390817147" fill="#6d6d6d" fill-opacity="1" stroke="#505050" stroke-opacity="1" class="amcharts-map-area amcharts-map-area-TL-MT" role="menuitem" aria-label="Manatuto  " countryId="TL-MT"></path>
                    <path cs="100,100" d="M271.42,152.57L261.84,148.65L214.46,221.73L259.06,209.71L273.92,254.54L312.44,264.06L336.59,220.91L337.19,208.13L280.37,152.13L271.42,152.57z" transform="translate(-1,7)" stroke-width="0.4458468390817147" fill="#6d6d6d" fill-opacity="1" stroke="#505050" stroke-opacity="1" class="amcharts-map-area amcharts-map-area-TL-BO" role="menuitem" aria-label="Bobonaro  " countryId="TL-BO"></path>
                    <path cs="100,100" d="M646.96,72.71L514.24,90.31L513.79,134.1L584.77,140.32L590.4,115.94L605.81,134.63L659.3,137.88L676.97,119.14L646.96,72.71z" transform="translate(-1,7)" stroke-width="0.4458468390817147" fill="#6d6d6d" fill-opacity="1" stroke="#505050" stroke-opacity="1" class="amcharts-map-area amcharts-map-area-TL-BA" role="menuitem" aria-label="Baucau  " countryId="TL-BA"></path>
                    <path cs="100,100" d="M404.04,162.01L355.38,177.01L337.19,208.13L336.59,220.91L355.39,271.76L399.63,260.06L377.48,212.29L404.04,162.01z" transform="translate(-1,7)" stroke-width="0.4458468390817147" fill="#6d6d6d" fill-opacity="1" stroke="#505050" stroke-opacity="1" class="amcharts-map-area amcharts-map-area-TL-AN" role="menuitem" aria-label="Ainaro  " countryId="TL-AN"></path>
                    <path cs="100,100" d="M361.18,119.15L355.83,106.37L271.89,121.9L261.84,148.65L271.42,152.57L280.37,152.13L357.03,126.4L361.18,119.15z" transform="translate(-1,7)" stroke-width="0.4458468390817147" fill="#6d6d6d" fill-opacity="1" stroke="#505050" stroke-opacity="1" class="amcharts-map-area amcharts-map-area-TL-LI" role="menuitem" aria-label="Liquica  " countryId="TL-LI"></path>
                    <path cs="100,100" d="M442.36,92.94L438.12,87.38L355.83,106.37L361.18,119.15L421.87,110.1L422.36,109.96L442.36,92.94zM390.49,0L359.85,30.92L378.47,44.03L390.49,0z" transform="translate(-1,7)" stroke-width="0.4458468390817147" fill="#6d6d6d" fill-opacity="1" stroke="#505050" stroke-opacity="1" class="amcharts-map-area amcharts-map-area-TL-DI" role="menuitem" aria-label="Dili  " countryId="TL-DI"></path>
                    <path cs="100,100" d="M357.03,126.4L280.37,152.13L337.19,208.13L355.38,177.01L357.03,126.4z" transform="translate(-1,7)" stroke-width="0.4458468390817147" fill="#6d6d6d" fill-opacity="1" stroke="#505050" stroke-opacity="1" class="amcharts-map-area amcharts-map-area-TL-ER" role="menuitem" aria-label="Ermera  " countryId="TL-ER" cursor="pointer"></path>
                    <path cs="100,100" d="M355.39,271.76L336.59,220.91L312.44,264.06L273.92,254.54L226.61,264.66L251.8,332.08L355.39,271.76z" transform="translate(-1,7)" stroke-width="0.4458468390817147" fill="#6d6d6d" fill-opacity="1" stroke="#505050" stroke-opacity="1" class="amcharts-map-area amcharts-map-area-TL-CO" role="menuitem" aria-label="Cova Lima  " countryId="TL-CO"></path>
                    <path cs="100,100" d="M421.87,110.1L361.18,119.15L357.03,126.4L355.38,177.01L404.04,162.01L432.45,151.82L422.36,109.96L421.87,110.1z" transform="translate(-1,7)" stroke-width="0.4458468390817147" fill="#6d6d6d" fill-opacity="1" stroke="#505050" stroke-opacity="1" class="amcharts-map-area amcharts-map-area-TL-AL" role="menuitem" aria-label="Aileu  " countryId="TL-AL" cursor="pointer"></path>
                    <path cs="100,100" d="M56.45,335.89L103.34,256.84L1.19,296.67L56.45,335.89z" transform="translate(-1,7)" stroke-width="0.4458468390817147" fill="#6d6d6d" fill-opacity="1" stroke="#505050" stroke-opacity="1" class="amcharts-map-area amcharts-map-area-TL-OE" role="menuitem" aria-label="Oecussi  " countryId="TL-OE"></path>
                </g>
            </g>
        </g>
    </svg>