<?xml version="1.0" encoding="UTF-8" standalone="no" ?>
    <!DOCTYPE svg PUBLIC "-//W3C//DTD SVG 1.1//EN" "http://www.w3.org/Graphics/SVG/1.1/DTD/svg11.dtd">
    <svg version="1.1" xmlns="http://www.w3.org/2000/svg" xmlns:xlink="http://www.w3.org/1999/xlink" width="1629" height="923" xml:space="preserve">
        <style>
          path { 
            stroke-width: 0.5;
            fill: #616161;
            fill-opacity: 0.4;
            stroke: #000000;
            stroke-opacity: 0.75; 
          }
        </style>
        <g>
            <g transform="translate(324.7061109266025,51.676964463633276) scale(1)">
                <g transform="translate(0,0) scale(1.2261707074061774)">
                    <path cs="100,100" d="M799.47,0L709.53,27.36L615.05,104.13L640.17,116.13L793.8,44.72L799.47,0z" transform="translate(-1,-42)" stroke-width="0.8155471289274105" fill="#797979" fill-opacity="0.47" stroke="#505050" stroke-opacity="0.35" class="amcharts-map-area amcharts-map-area-TT-TOB" role="menuitem" aria-label="Tobago  " countryId="TT-TOB"></path>
                    <path cs="100,100" d="M237.71,386.7L216.3,391.77L246.64,409.94L237.71,386.7z" transform="translate(-1,-42)" stroke-width="0.8155471289274105" fill="#797979" fill-opacity="0.47" stroke="#505050" stroke-opacity="0.35" class="amcharts-map-area amcharts-map-area-TT-POS" role="menuitem" aria-label="Port of Spain  " countryId="TT-POS"></path>
                    <path cs="100,100" d="M318.68,450.5L295.49,450.05L277.72,450.8L265.66,466.33L265.63,475.3L312.68,485.51L318.68,450.5z" transform="translate(-1,-42)" stroke-width="0.8155471289274105" fill="#797979" fill-opacity="0.47" stroke="#505050" stroke-opacity="0.35" class="amcharts-map-area amcharts-map-area-TT-CHA" role="menuitem" aria-label="Chaguanas  " countryId="TT-CHA"></path>
                    <path cs="100,100" d="M277.45,627.59L285.21,598.16L267.14,598.33L249.93,633.23L277.45,627.59z" transform="translate(-1,-42)" stroke-width="0.8155471289274105" fill="#797979" fill-opacity="0.47" stroke="#505050" stroke-opacity="0.35" class="amcharts-map-area amcharts-map-area-TT-SFO" role="menuitem" aria-label="San Fernando  " countryId="TT-SFO"></path>
                    <path cs="100,100" d="M430.86,312.59L327.97,312.49L334.46,351L286,356.06L295.49,450.05L318.68,450.5L392.46,435.5L413.97,416.13L406.59,365.38L392.24,359.29L439.04,332.68L430.86,312.59zM372.35,426.29L360.4,422.53L366.16,399.34L372.35,426.29z" transform="translate(-1,-42)" stroke-width="0.8155471289274105" fill="#797979" fill-opacity="0.47" stroke="#505050" stroke-opacity="0.35" class="amcharts-map-area amcharts-map-area-TT-TUP" role="menuitem" aria-label="Tunapuna/Piarco  " countryId="TT-TUP"></path>
                    <path cs="100,100" d="M126.32,681.41L135.06,694.98L146.94,692.29L169.89,666.18L165.01,655.89L126.32,681.41z" transform="translate(-1,-42)" stroke-width="0.8155471289274105" fill="#797979" fill-opacity="0.47" stroke="#505050" stroke-opacity="0.35" class="amcharts-map-area amcharts-map-area-TT-PTF" role="menuitem" aria-label="Point Fortin  " countryId="TT-PTF"></path>
                    <path cs="100,100" d="M312.92,735.13L316.47,651.65L277.45,627.59L249.93,633.23L232.38,638.52L261.93,669.94L241.84,737.04L312.92,735.13z" transform="translate(-1,-42)" stroke-width="0.8155471289274105" fill="#797979" fill-opacity="0.47" stroke="#505050" stroke-opacity="0.35" class="amcharts-map-area amcharts-map-area-TT-PED" role="menuitem" aria-label="Penal-Debe  " countryId="TT-PED"></path>
                    <path cs="100,100" d="M416.34,513.59L404.46,507.91L408.92,480.76L392.46,435.5L318.68,450.5L312.68,485.51L265.63,475.3L251.05,528.76L267.14,598.33L285.21,598.16L351.34,584.84L389.95,599.83L416.34,513.59z" transform="translate(-1,-42)" stroke-width="0.8155471289274105" fill="#797979" fill-opacity="0.47" stroke="#505050" stroke-opacity="0.35" class="amcharts-map-area amcharts-map-area-TT-CTT" role="menuitem" aria-label="Couva-Tabaquite-Talparo  " countryId="TT-CTT"></path>
                    <path cs="100,100" d="M389.95,599.83L351.34,584.84L285.21,598.16L277.45,627.59L316.47,651.65L312.92,735.13L427.41,733.77L419.27,644.3L389.95,599.83z" transform="translate(-1,-42)" stroke-width="0.8155471289274105" fill="#797979" fill-opacity="0.47" stroke="#505050" stroke-opacity="0.35" class="amcharts-map-area amcharts-map-area-TT-PRT" role="menuitem" aria-label="Princes Town  " countryId="TT-PRT"></path>
                    <path cs="100,100" d="M295.49,450.05L286,356.06L334.46,351L327.97,312.49L301,333.23L277.32,341.14L277.32,328.92L273.83,336.83L266.68,329.7L249.82,341.12L237.71,386.7L246.64,409.94L265.66,466.33L277.72,450.8L295.49,450.05z" transform="translate(-1,-42)" stroke-width="0.8155471289274105" fill="#797979" fill-opacity="0.47" stroke="#505050" stroke-opacity="0.35" class="amcharts-map-area amcharts-map-area-TT-SJL" role="menuitem" aria-label="San Juan-Laventille  " countryId="TT-SJL"></path>
                    <path cs="100,100" d="M506.54,509.38L416.34,513.59L389.95,599.83L419.27,644.3L427.41,733.77L471.73,722.22L504.76,698.86L530.66,697.36L526.8,634.24L550.39,586.6L519.09,556.48L506.54,509.38z" transform="translate(-1,-42)" stroke-width="0.8155471289274105" fill="#797979" fill-opacity="0.47" stroke="#505050" stroke-opacity="0.35" class="amcharts-map-area amcharts-map-area-TT-MRC" role="menuitem" aria-label="Rio Claro-Mayaro  " countryId="TT-MRC"></path>
                    <path cs="100,100" d="M506.54,509.38L504.25,482.61L520.69,468.43L509.8,382.24L556.93,335.99L581.08,293.37L483.76,296.95L430.86,312.59L439.04,332.68L392.24,359.29L406.59,365.38L413.97,416.13L392.46,435.5L408.92,480.76L404.46,507.91L416.34,513.59L506.54,509.38z" transform="translate(-1,-42)" stroke-width="0.8155471289274105" fill="#797979" fill-opacity="0.47" stroke="#505050" stroke-opacity="0.35" class="amcharts-map-area amcharts-map-area-TT-SGE" role="menuitem" aria-label="Sangre Grande  " countryId="TT-SGE"></path>
                    <path cs="100,100" d="M372.35,426.29L366.16,399.34L360.4,422.53L372.35,426.29z" transform="translate(-1,-42)" stroke-width="0.8155471289274105" fill="#797979" fill-opacity="0.47" stroke="#505050" stroke-opacity="0.35" class="amcharts-map-area amcharts-map-area-TT-ARI" role="menuitem" aria-label="Arima  " countryId="TT-ARI"></path>
                    <path cs="100,100" d="M22.66,752.75L77.48,728.6L138.37,730.06L174.33,745.05L241.84,737.04L261.93,669.94L232.38,638.52L172.04,634.41L165.01,655.89L169.89,666.18L146.94,692.29L135.06,694.98L126.32,681.41L70.33,700.46L0.53,744.58L22.66,752.75z" transform="translate(-1,-42)" stroke-width="0.8155471289274105" fill="#797979" fill-opacity="0.47" stroke="#505050" stroke-opacity="0.35" class="amcharts-map-area amcharts-map-area-TT-SIP" role="menuitem" aria-label="Siparia  " countryId="TT-SIP"></path>
                    <path cs="100,100" d="M136.2,385.23L140.71,372.38L127.94,383.98L136.2,385.23zM237.71,386.7L249.82,341.12L186.15,345.1L148.94,368.8L155.32,378.64L216.3,391.77L237.71,386.7z" transform="translate(-1,-42)" stroke-width="0.8155471289274105" fill="#797979" fill-opacity="0.47" stroke="#505050" stroke-opacity="0.35" class="amcharts-map-area amcharts-map-area-TT-DMN" role="menuitem" aria-label="Diego Martin  " countryId="TT-DMN"></path>
                </g>
            </g>
        </g>
    </svg>