<?xml version="1.0" encoding="UTF-8" standalone="no" ?>
    <!DOCTYPE svg PUBLIC "-//W3C//DTD SVG 1.1//EN" "http://www.w3.org/Graphics/SVG/1.1/DTD/svg11.dtd">
    <svg version="1.1" xmlns="http://www.w3.org/2000/svg" xmlns:xlink="http://www.w3.org/1999/xlink" width="1789" height="923" xml:space="preserve">
        <style>
          path { 
            stroke-width: 0.5;
            fill: #616161;
            fill-opacity: 0.4;
            stroke: #000000;
            stroke-opacity: 0.75; 
          }
        </style>
        <g>
            <g transform="translate(516.4291474404193,-15.8475656703835) scale(1)">
                <g transform="translate(0,0) scale(0.9461232546536054)">
                    <path cs="100,100" d="M107.78,914.04L101.98,913.93L99.89,906.83L69.91,915.34L92.48,930.92L107.78,914.04z" transform="translate(0,17)" stroke-width="1.0569447427503724" fill="#6d6d6d" fill-opacity="1" stroke="#505050" stroke-opacity="1" class="amcharts-map-area amcharts-map-area-AS-WT" role="menuitem" aria-label="Western  " countryId="AS-WT"></path>
                    <path cs="100,100" d="M0.41,0L1.53,4.1L3.91,0.32L0.41,0z" transform="translate(0,17)" stroke-width="1.0569447427503724" fill="#6d6d6d" fill-opacity="1" stroke="#505050" stroke-opacity="1" class="amcharts-map-area amcharts-map-area-AS-UU2" role="menuitem" aria-label="Swain's Island  " countryId="AS-UU2"></path>
                    <path cs="100,100" d="M799.29,975.56L799.59,972.18L796.14,972.96L799.29,975.56z" transform="translate(0,17)" stroke-width="1.0569447427503724" fill="#6d6d6d" fill-opacity="1" stroke="#505050" stroke-opacity="1" class="amcharts-map-area amcharts-map-area-AS-UU1" role="menuitem" aria-label="Rose Atoll  " countryId="AS-UU1"></path>
                    <path cs="100,100" d="M449.98,894.44L443.49,888.22L421.96,892.03L427.39,901.66L449.98,894.44zM396.57,875.19L385.48,874.6L389.87,878.61L396.57,875.19z" transform="translate(0,17)" stroke-width="1.0569447427503724" fill="#6d6d6d" fill-opacity="1" stroke="#505050" stroke-opacity="1" class="amcharts-map-area amcharts-map-area-AS-MA" role="menuitem" aria-label="Manu's  " countryId="AS-MA"></path>
                    <path cs="100,100" d="M107.78,914.04L142.04,898.18L116.3,896.43L99.89,906.83L101.98,913.93L107.78,914.04z" transform="translate(0,17)" stroke-width="1.0569447427503724" fill="#6d6d6d" fill-opacity="1" stroke="#505050" stroke-opacity="1" class="amcharts-map-area amcharts-map-area-AS-ET" role="menuitem" aria-label="Eastern  " countryId="AS-ET"></path>
                </g>
            </g>
        </g>
    </svg>