<svg width="60" height="60" viewBox="0 0 60 60" fill="none" xmlns="http://www.w3.org/2000/svg">
<circle cx="30" cy="30" r="30" fill="white"/>
<path d="M30 13.5933C24.9992 13.5933 20.9304 17.6617 20.9304 22.6629C20.9304 27.6637 24.9992 31.7321 30 31.7321C35.0008 31.7321 39.0696 27.6637 39.0696 22.6629C39.0696 17.6617 35.0008 13.5933 30 13.5933Z" fill="#1F93FF"/>
<path d="M13.2525 49.8705C17.78 53.6926 23.625 56 30 56C36.375 56 42.22 53.6922 46.7475 49.8705C46.3305 46.0826 44.6282 42.5315 41.9149 39.8182C38.7316 36.6349 34.5001 34.8817 30 34.8817C21.4291 34.8817 14.1828 41.4202 13.2525 49.8705Z" fill="#1F93FF"/>
<path d="M30 4C15.6634 4 4 15.6634 4 30C4 36.6333 6.4982 42.6929 10.6012 47.2914C11.4799 43.4328 13.4965 39.9123 16.441 37.1697C18.5076 35.2448 20.9256 33.8042 23.5393 32.9084C20.1433 30.7593 17.8835 26.9702 17.8835 22.6629C17.8835 15.9816 23.3191 10.5464 30 10.5464C36.6809 10.5464 42.1161 15.9816 42.1161 22.6629C42.1161 26.9682 39.8583 30.7562 36.4647 32.9056C39.2957 33.8752 41.8907 35.4852 44.0692 37.6636C46.7308 40.3253 48.5685 43.6709 49.3969 47.293C53.5014 42.6945 56 36.6341 56 30C56 15.6634 44.3366 4 30 4Z" fill="#1F93FF"/>
</svg>
